<svg width="52" height="52" viewBox="0 0 52 52" fill="none" xmlns="http://www.w3.org/2000/svg">
<g clip-path="url(#clip0_8_22)">
<path d="M51.1615 17.6429L34.5475 9.28824V25.9976L51.1615 17.6451V17.6429ZM17.693 34.3566V17.6429L0.838504 9.28824V25.9997L17.6952 34.3566H17.693ZM0.396504 8.57541C0.517814 8.49907 0.656869 8.45554 0.800055 8.44908C0.943241 8.44263 1.08565 8.47346 1.21334 8.53858L17.693 16.7091L34.1748 8.53858C34.2912 8.48025 34.4195 8.44988 34.5497 8.44988C34.6798 8.44988 34.8082 8.48025 34.9245 8.53858L51.5385 16.8954C51.6772 16.9649 51.7938 17.0717 51.8753 17.2037C51.9568 17.3357 52 17.4878 52 17.6429V34.3479C51.9999 34.5033 51.9567 34.6556 51.8752 34.788C51.7938 34.9203 51.6772 35.0275 51.5385 35.0976L34.9245 43.4609C34.7966 43.5244 34.6546 43.5544 34.5119 43.548C34.3692 43.5416 34.2304 43.4991 34.1087 43.4243C33.987 43.3496 33.8862 43.2451 33.8159 43.1208C33.7456 42.9964 33.7081 42.8563 33.7068 42.7134V27.3517L18.0657 35.1084C17.9496 35.1651 17.8222 35.1945 17.693 35.1945C17.5639 35.1945 17.4364 35.1651 17.3203 35.1084L0.465838 26.7494C0.326171 26.6801 0.208591 26.5733 0.126303 26.4408C0.0440141 26.3084 0.000277275 26.1557 4.37897e-06 25.9997V9.28824C-0.00045834 9.14542 0.0357574 9.00487 0.105183 8.88006C0.174608 8.75524 0.274918 8.65035 0.396504 8.57541Z" fill="#1F1F1F"/>
</g>
<defs>
<clipPath id="clip0_8_22">
<rect width="52" height="52" fill="white"/>
</clipPath>
</defs>
</svg>
