<svg width="52" height="53" viewBox="0 0 52 53" fill="none" xmlns="http://www.w3.org/2000/svg">
<g clip-path="url(#clip0_8_16)">
<path d="M25.812 -0.0631179C25.7274 -0.0475506 25.6439 -0.0264428 25.562 7.44388e-05C25.1105 0.103224 24.708 0.362765 24.4232 0.734469C24.1384 1.10617 23.9888 1.56704 24 2.03854V4.20542C13.474 5.17777 5.08002 13.7332 4.12402 24.4616H2.00002C1.93739 24.4586 1.87465 24.4586 1.81202 24.4616C1.28159 24.487 0.782781 24.7262 0.425337 25.1264C0.0678926 25.5267 -0.118912 26.0552 -0.0939814 26.5959C-0.0690511 27.1365 0.165572 27.6449 0.558273 28.0092C0.950974 28.3735 1.46959 28.5639 2.00002 28.5385H4.12602C5.08002 39.267 13.474 47.8224 24 48.7968V50.9616C24 51.5022 24.2107 52.0207 24.5858 52.403C24.9609 52.7853 25.4696 53.0001 26 53.0001C26.5305 53.0001 27.0392 52.7853 27.4142 52.403C27.7893 52.0207 28 51.5022 28 50.9616V48.7947C38.526 47.8224 46.92 39.267 47.876 28.5385H50C50.5305 28.5385 51.0392 28.3238 51.4142 27.9415C51.7893 27.5592 52 27.0407 52 26.5001C52 25.9594 51.7893 25.4409 51.4142 25.0587C51.0392 24.6764 50.5305 24.4616 50 24.4616H47.874C46.92 13.7332 38.528 5.17777 28 4.20338V2.03854C28.0101 1.74866 27.9594 1.45993 27.8513 1.19163C27.7431 0.923328 27.5801 0.681637 27.373 0.482704C27.1659 0.283772 26.9195 0.132178 26.6503 0.0380518C26.3811 -0.0560745 26.0953 -0.0905659 25.812 -0.0631179ZM24 10.3188V12.2308C24 12.7715 24.2107 13.29 24.5858 13.6723C24.9609 14.0545 25.4696 14.2693 26 14.2693C26.5305 14.2693 27.0392 14.0545 27.4142 13.6723C27.7893 13.29 28 12.7715 28 12.2308V10.3188C31.5272 10.7664 34.807 12.4004 37.3203 14.9621C39.8337 17.5237 41.4368 20.8666 41.876 24.4616H40C39.9374 24.4586 39.8747 24.4586 39.812 24.4616C39.2816 24.487 38.7828 24.7262 38.4253 25.1264C38.0679 25.5267 37.8811 26.0552 37.906 26.5959C37.9309 27.1365 38.1656 27.6449 38.5583 28.0092C38.951 28.3735 39.4696 28.5639 40 28.5385H41.876C41.4368 32.1335 39.8337 35.4764 37.3203 38.0381C34.807 40.5997 31.5272 42.2337 28 42.6814V40.7693C28.0074 40.4595 27.9454 40.1521 27.8188 39.8704C27.6921 39.5888 27.5041 39.3402 27.2691 39.1437C27.034 38.9471 26.7581 38.8078 26.4623 38.7363C26.1665 38.6648 25.8586 38.6629 25.562 38.7308C25.1105 38.834 24.708 39.0935 24.4232 39.4652C24.1384 39.8369 23.9888 40.2978 24 40.7693V42.6814C20.4729 42.2337 17.193 40.5997 14.6797 38.0381C12.1664 35.4764 10.5632 32.1335 10.124 28.5385H12C12.5305 28.5385 13.0392 28.3238 13.4142 27.9415C13.7893 27.5592 14 27.0407 14 26.5001C14 25.9594 13.7893 25.4409 13.4142 25.0587C13.0392 24.6764 12.5305 24.4616 12 24.4616H10.124C10.5632 20.8666 12.1664 17.5237 14.6797 14.9621C17.193 12.4004 20.4729 10.7664 24 10.3188Z" fill="#1F1F1F"/>
</g>
<defs>
<clipPath id="clip0_8_16">
<rect width="52" height="53" fill="white"/>
</clipPath>
</defs>
</svg>
