<svg width="57" height="56" viewBox="0 0 57 56" fill="none" xmlns="http://www.w3.org/2000/svg">
<path d="M55.6657 38.6439C55.9449 39.0952 56.0208 39.631 55.877 40.1342C55.7331 40.6374 55.3811 41.0672 54.8979 41.3297L29.4811 55.1282C29.161 55.3062 28.795 55.4002 28.4221 55.4002C28.0492 55.4002 27.6832 55.3062 27.3631 55.1282L1.94623 41.3297C1.50728 41.0481 1.19858 40.6229 1.08173 40.1388C0.964891 39.6547 1.0485 39.1474 1.31588 38.7181C1.58326 38.2889 2.01474 37.9692 2.52419 37.823C3.03365 37.6768 3.58361 37.7148 4.0643 37.9294L28.4221 51.1365L52.7799 37.9294C53.2648 37.6696 53.8404 37.5989 54.3811 37.7328C54.9218 37.8667 55.3837 38.1942 55.6657 38.6439ZM52.7799 26.1021L28.4221 39.3092L4.0643 26.1021C3.58361 25.8875 3.03365 25.8495 2.52419 25.9957C2.01474 26.1419 1.58326 26.4616 1.31588 26.8908C1.0485 27.3201 0.964891 27.8274 1.08173 28.3115C1.19858 28.7956 1.50728 29.2208 1.94623 29.5024L27.3631 43.3009C27.6832 43.4789 28.0492 43.5729 28.4221 43.5729C28.795 43.5729 29.161 43.4789 29.4811 43.3009L54.8979 29.5024C55.1613 29.3849 55.3957 29.2179 55.5864 29.012C55.7771 28.8061 55.9199 28.5657 56.006 28.3059C56.092 28.0462 56.1195 27.7726 56.0865 27.5026C56.0535 27.2325 55.9609 26.9716 55.8144 26.7365C55.6679 26.5013 55.4707 26.2969 55.2353 26.136C54.9998 25.9752 54.7311 25.8614 54.4462 25.8018C54.1612 25.7422 53.866 25.7381 53.5793 25.7898C53.2925 25.8415 53.0204 25.9478 52.7799 26.1021ZM1.94623 17.6751L27.3631 31.4736C27.6832 31.6516 28.0492 31.7456 28.4221 31.7456C28.795 31.7456 29.161 31.6516 29.4811 31.4736L54.8979 17.6751C55.2164 17.5012 55.4806 17.2528 55.6641 16.9546C55.8476 16.6564 55.9441 16.3186 55.9441 15.975C55.9441 15.6313 55.8476 15.2936 55.6641 14.9953C55.4806 14.6971 55.2164 14.4487 54.8979 14.2748L29.4811 0.476285C29.162 0.295701 28.7956 0.200195 28.4221 0.200195C28.0486 0.200195 27.6822 0.295701 27.3631 0.476285L1.94623 14.2748C1.62772 14.4487 1.36361 14.6971 1.18009 14.9953C0.996573 15.2936 0.900024 15.6313 0.900024 15.975C0.900024 16.3186 0.996573 16.6564 1.18009 16.9546C1.36361 17.2528 1.62772 17.5012 1.94623 17.6751Z" fill="black"/>
</svg>
