<svg width="51" height="53" viewBox="0 0 51 53" fill="none" xmlns="http://www.w3.org/2000/svg">
<path fill-rule="evenodd" clip-rule="evenodd" d="M25.5575 0.625C19.0643 0.625 13.1475 2.76975 9.64723 4.52206C9.33098 4.68019 9.03629 4.83544 8.76173 4.98494C8.21836 5.28106 7.75548 5.55706 7.38748 5.8L11.3694 11.6621L13.2439 12.4082C20.5694 16.104 30.3932 16.104 37.7202 12.4082L39.8477 11.3042L43.6139 5.8C42.8337 5.29112 42.0223 4.83165 41.1845 4.42431C37.7029 2.69069 31.9285 0.625 25.5575 0.625ZM16.2957 7.2605C14.8857 6.99665 13.493 6.64716 12.1255 6.214C15.4044 4.75781 20.2919 3.2125 25.556 3.2125C29.203 3.2125 32.6515 3.95425 35.5035 4.89438C32.1614 5.36444 28.5949 6.16225 25.1967 7.14406C22.5229 7.91744 19.3978 7.83406 16.2957 7.2605ZM39.2382 14.54L38.886 14.7183C30.8259 18.7835 20.1367 18.7835 12.0766 14.7183L11.7431 14.5486C-0.363518 27.8326 -9.60664 52.3707 25.5575 52.3707C60.7187 52.3707 51.2499 27.374 39.2382 14.54ZM24.0625 26.5C23.3 26.5 22.5687 26.8029 22.0296 27.3421C21.4904 27.8812 21.1875 28.6125 21.1875 29.375C21.1875 30.1375 21.4904 30.8688 22.0296 31.4079C22.5687 31.9471 23.3 32.25 24.0625 32.25V26.5ZM26.9375 23.625V22.1875H24.0625V23.625C22.5375 23.625 21.075 24.2308 19.9966 25.3091C18.9183 26.3875 18.3125 27.85 18.3125 29.375C18.3125 30.9 18.9183 32.3625 19.9966 33.4409C21.075 34.5192 22.5375 35.125 24.0625 35.125V40.875C23.4679 40.8752 22.8879 40.691 22.4024 40.3478C21.9168 40.0046 21.5496 39.5193 21.3514 38.9588C21.2244 38.5993 20.9598 38.3049 20.6158 38.1405C20.2718 37.976 19.8766 37.955 19.5171 38.0819C19.1576 38.2089 18.8632 38.4735 18.6988 38.8175C18.5343 39.1614 18.5133 39.5567 18.6402 39.9162C19.0368 41.0374 19.7711 42.0081 20.7421 42.6947C21.7132 43.3813 22.8732 43.75 24.0625 43.75V45.1875H26.9375V43.75C28.4625 43.75 29.925 43.1442 31.0033 42.0659C32.0817 40.9875 32.6875 39.525 32.6875 38C32.6875 36.475 32.0817 35.0125 31.0033 33.9341C29.925 32.8558 28.4625 32.25 26.9375 32.25V26.5C28.1881 26.5 29.2533 27.2978 29.65 28.4162C29.7089 28.5992 29.8039 28.7685 29.9293 28.9141C30.0547 29.0597 30.2081 29.1787 30.3804 29.2641C30.5526 29.3494 30.7402 29.3993 30.932 29.4109C31.1239 29.4224 31.3161 29.3954 31.4974 29.3313C31.6786 29.2673 31.8451 29.1676 31.9871 29.0381C32.1292 28.9085 32.2438 28.7519 32.3242 28.5773C32.4046 28.4027 32.4491 28.2138 32.4552 28.0216C32.4614 27.8295 32.4289 27.6382 32.3597 27.4588C31.9632 26.3376 31.2289 25.3669 30.2578 24.6803C29.2868 23.9937 28.1267 23.625 26.9375 23.625ZM26.9375 35.125V40.875C27.7 40.875 28.4312 40.5721 28.9704 40.0329C29.5096 39.4938 29.8125 38.7625 29.8125 38C29.8125 37.2375 29.5096 36.5062 28.9704 35.9671C28.4312 35.4279 27.7 35.125 26.9375 35.125Z" fill="black"/>
</svg>
