<svg width="52" height="53" viewBox="0 0 52 53" fill="none" xmlns="http://www.w3.org/2000/svg">
<path d="M14.625 29.8125C13.018 29.8125 11.4471 30.2982 10.111 31.2081C8.77485 32.1181 7.73344 33.4115 7.11848 34.9247C6.50352 36.4379 6.34262 38.1029 6.65612 39.7093C6.96963 41.3158 7.74346 42.7913 8.87976 43.9495C10.0161 45.1076 11.4638 45.8963 13.0399 46.2159C14.616 46.5354 16.2497 46.3714 17.7343 45.7446C19.219 45.1178 20.4879 44.0564 21.3807 42.6946C22.2735 41.3327 22.75 39.7316 22.75 38.0938C22.75 37.0062 22.5398 35.9294 22.1315 34.9247C21.7232 33.9199 21.1247 33.007 20.3702 32.238C19.6158 31.469 18.7201 30.859 17.7343 30.4429C16.7485 30.0267 15.692 29.8125 14.625 29.8125ZM14.625 41.4062C13.9822 41.4062 13.3539 41.212 12.8194 40.848C12.2849 40.484 11.8684 39.9667 11.6224 39.3614C11.3764 38.7561 11.312 38.0901 11.4375 37.4475C11.5629 36.805 11.8724 36.2147 12.3269 35.7515C12.7814 35.2882 13.3605 34.9727 13.991 34.8449C14.6214 34.7171 15.2749 34.7827 15.8687 35.0334C16.4626 35.2841 16.9702 35.7087 17.3273 36.2534C17.6844 36.7982 17.875 37.4386 17.875 38.0938C17.875 38.9723 17.5326 39.8148 16.9231 40.436C16.3136 41.0573 15.487 41.4062 14.625 41.4062ZM8.125 26.5C7.4788 26.4971 6.85925 26.2371 6.39844 25.7754C6.1712 25.5446 5.9909 25.2703 5.86787 24.9683C5.74485 24.6664 5.68152 24.3426 5.68152 24.0156C5.68152 23.6886 5.74485 23.3649 5.86787 23.0629C5.9909 22.7609 6.1712 22.4867 6.39844 22.2559L8.73438 19.875L6.39844 17.4941C5.94053 17.0274 5.68328 16.3944 5.68328 15.7344C5.68328 15.0743 5.94053 14.4413 6.39844 13.9746C6.85635 13.5079 7.47742 13.2457 8.125 13.2457C8.77259 13.2457 9.39365 13.5079 9.85157 13.9746L12.1875 16.3555L14.5234 13.9746C14.9814 13.5079 15.6024 13.2457 16.25 13.2457C16.8976 13.2457 17.5187 13.5079 17.9766 13.9746C18.4345 14.4413 18.6917 15.0743 18.6917 15.7344C18.6917 16.3944 18.4345 17.0274 17.9766 17.4941L15.6406 19.875L17.9766 22.2559C18.2038 22.4867 18.3841 22.7609 18.5071 23.0629C18.6302 23.3649 18.6935 23.6886 18.6935 24.0156C18.6935 24.3426 18.6302 24.6664 18.5071 24.9683C18.3841 25.2703 18.2038 25.5446 17.9766 25.7754C17.5166 26.2381 16.8963 26.4976 16.25 26.4976C15.6037 26.4976 14.9834 26.2381 14.5234 25.7754L12.1875 23.3945L9.85157 25.7754C9.39075 26.2371 8.7712 26.4971 8.125 26.5ZM45.6016 42.1309C45.8288 42.3617 46.0091 42.6359 46.1321 42.9379C46.2552 43.2399 46.3185 43.5636 46.3185 43.8906C46.3185 44.2176 46.2552 44.5414 46.1321 44.8433C46.0091 45.1453 45.8288 45.4196 45.6016 45.6504C45.1416 46.1131 44.5213 46.3726 43.875 46.3726C43.2287 46.3726 42.6084 46.1131 42.1484 45.6504L39.8125 43.2695L37.4766 45.6504C37.0166 46.1131 36.3963 46.3726 35.75 46.3726C35.1037 46.3726 34.4834 46.1131 34.0234 45.6504C33.7962 45.4196 33.6159 45.1453 33.4929 44.8433C33.3698 44.5414 33.3065 44.2176 33.3065 43.8906C33.3065 43.5636 33.3698 43.2399 33.4929 42.9379C33.6159 42.6359 33.7962 42.3617 34.0234 42.1309L36.3594 39.75L34.0234 37.3691C33.5655 36.9024 33.3083 36.2694 33.3083 35.6094C33.3083 34.9493 33.5655 34.3163 34.0234 33.8496C34.4814 33.3829 35.1024 33.1207 35.75 33.1207C36.3976 33.1207 37.0187 33.3829 37.4766 33.8496L39.8125 36.2305L42.1484 33.8496C42.6064 33.3829 43.2274 33.1207 43.875 33.1207C44.5226 33.1207 45.1437 33.3829 45.6016 33.8496C46.0595 34.3163 46.3167 34.9493 46.3167 35.6094C46.3167 36.2694 46.0595 36.9024 45.6016 37.3691L43.2656 39.75L45.6016 42.1309ZM36.7859 22.9598C35.7297 27.7008 32.0531 31.9656 27.625 33.5598C27.3651 33.6581 27.0897 33.7072 26.8125 33.7047C26.2389 33.7028 25.6843 33.4948 25.2463 33.1173C24.8083 32.7398 24.515 32.2169 24.4179 31.6407C24.3209 31.0645 24.4263 30.4718 24.7157 29.967C25.0051 29.4622 25.4598 29.0776 26 28.8809C28.8641 27.8457 31.3422 24.968 32.0328 21.8625C32.5203 19.6887 32.1141 17.5355 30.875 15.5273V17.3906C30.875 18.0495 30.6182 18.6814 30.1611 19.1473C29.704 19.6133 29.084 19.875 28.4375 19.875C27.791 19.875 27.1711 19.6133 26.7139 19.1473C26.2568 18.6814 26 18.0495 26 17.3906V9.10938C26 8.45048 26.2568 7.81857 26.7139 7.35266C27.1711 6.88675 27.791 6.625 28.4375 6.625H36.5625C37.209 6.625 37.829 6.88675 38.2861 7.35266C38.7432 7.81857 39 8.45048 39 9.10938C39 9.76827 38.7432 10.4002 38.2861 10.8661C37.829 11.332 37.209 11.5938 36.5625 11.5938H34.125C36.725 15.0305 37.6594 19.0055 36.7859 22.9598Z" fill="#1F1F1F"/>
</svg>
