<svg width="31" height="29" viewBox="0 0 31 29" fill="none" xmlns="http://www.w3.org/2000/svg">
<rect opacity="0.2" x="0.503662" width="29.901" height="29" rx="5" fill="white"/>
<path d="M28.4116 6.51594C27.4377 6.93655 26.4077 7.21459 25.3538 7.34143C26.4657 6.68016 27.299 5.63987 27.699 4.41352C26.6541 5.03272 25.5102 5.46898 24.3172 5.70335C23.5197 4.84248 22.4578 4.26944 21.2979 4.0741C20.1381 3.87876 18.9459 4.07218 17.9083 4.62401C16.8708 5.17584 16.0466 6.05487 15.565 7.12324C15.0834 8.19161 14.9716 9.38889 15.2472 10.5273C13.1345 10.4209 11.0678 9.87331 9.18155 8.92C7.29528 7.9667 5.63156 6.62905 4.29847 4.99394C3.8309 5.80675 3.58521 6.72724 3.58583 7.66389C3.58417 8.53373 3.79861 9.39048 4.21005 10.1579C4.62148 10.9252 5.21715 11.5794 5.94402 12.0622C5.09919 12.0393 4.27241 11.8137 3.534 11.4044V11.4689C3.54034 12.6876 3.96936 13.8668 4.74849 14.8069C5.52763 15.747 6.60905 16.3904 7.80985 16.6282C7.34761 16.7682 6.8677 16.8421 6.38457 16.8475C6.05013 16.8436 5.71653 16.8134 5.38687 16.7572C5.72882 17.8056 6.39056 18.7218 7.28 19.3783C8.16944 20.0349 9.24235 20.3991 10.3494 20.4203C8.47999 21.8846 6.17192 22.6838 3.79315 22.6904C3.36004 22.6918 2.92727 22.666 2.49744 22.613C4.92615 24.174 7.75648 25.0027 10.6474 24.9992C12.6424 25.0198 14.6216 24.6445 16.4692 23.8952C18.3169 23.1459 19.996 22.0376 21.4086 20.6351C22.8211 19.2325 23.9388 17.5638 24.6963 15.7265C25.4537 13.8891 25.8358 11.92 25.8202 9.93399C25.8202 9.71472 25.8202 9.48255 25.8202 9.25038C26.8369 8.49558 27.7139 7.57028 28.4116 6.51594Z" fill="white"/>
</svg>
