<svg width="187" height="112" viewBox="0 0 187 112" fill="none" xmlns="http://www.w3.org/2000/svg">
<path d="M181.471 18.0409C182.017 17.8811 182.599 17.7244 183.149 17.8734C183.549 17.982 183.899 18.2442 184.307 18.3218C184.725 18.4009 185.153 18.2768 185.573 18.2085C185.994 18.1402 186.473 18.148 186.789 18.4351C187.105 18.7206 187.07 19.3614 186.658 19.4732C187.089 20.2831 186.464 21.4376 185.547 21.5214C185.807 21.7604 185.782 22.1964 185.589 22.4912C185.396 22.786 185.078 22.9722 184.77 23.146C180.077 25.7979 175.142 28.0277 170.048 29.7997C168.69 30.273 167.313 30.7136 165.895 30.9604C164.678 31.1714 163.182 31.1186 162.521 30.0775C162.091 29.3994 162.183 28.4901 162.563 27.784C162.943 27.078 163.568 26.5365 164.202 26.043C169.22 22.125 175.431 19.813 181.471 18.0409Z" fill="#F2D6B1"/>
<path d="M131.356 26.4942C132.087 26.7999 132.834 27.1335 133.376 27.7107C133.917 28.2879 134.21 29.1709 133.877 29.8893C133.578 30.5332 132.879 30.8824 132.216 31.14C127.983 32.7894 122.955 32.6373 119.103 30.2322C117.505 29.2345 114.839 25.827 117.404 24.3249C118.512 23.6763 120.281 23.8641 121.505 23.9354C123.115 24.0301 124.709 24.3203 126.267 24.7315C128.005 25.1908 129.7 25.8021 131.356 26.4942Z" fill="#E06046"/>
<path d="M7.54307 22.4258C7.54307 22.4258 3.0829 31.0672 8.53906 40.9577C9.55528 42.7996 7.51972 44.8835 6.5782 46.7641C3.90459 52.1035 6.83965 58.8038 11.4383 62.624C16.037 66.4443 21.9414 68.221 27.4458 70.5641C28.3966 70.9691 29.3802 71.4222 30.012 72.2383C30.6703 73.0871 30.8508 74.195 31.1558 75.2238C32.516 79.8261 36.5217 83.1313 40.596 85.6838C45.1744 88.5529 50.1092 90.8525 55.2541 92.5113C58.5145 93.5633 61.8977 94.3764 64.8717 96.074C68.1367 97.936 70.9394 100.867 74.6386 101.537C78.1993 102.183 81.7522 100.572 84.93 98.8468C102.128 89.5087 116.016 75.2114 128.953 60.5525C134.291 54.5025 142.817 39.5348 146.456 30.5474C147.137 28.8638 138.326 40.2594 137.195 38.8381C136.368 37.8 135.238 37.0474 134.096 36.3724C128.182 32.8765 120.303 30.4543 113.406 29.9484C110.023 29.7001 106.485 31.1587 103.224 31.8834C99.3189 32.7508 95.3817 33.477 91.4242 34.0635C75.4152 36.4345 59.0669 36.5074 43.0361 34.2838C33.9617 33.0301 7.54307 22.4258 7.54307 22.4258Z" fill="#F46A4A"/>
<path d="M5.85754 29.2272C6.87532 29.3219 7.91489 29.5624 8.85641 29.8262C23.5753 33.9506 38.8124 36.2238 54.0962 36.5776C57.5977 36.6583 61.1413 36.6366 64.5883 35.9523C64.6537 35.9398 64.7175 35.9259 64.7829 35.9119C57.5028 35.8405 50.2258 35.3068 43.0142 34.3075C33.9429 33.049 7.52427 22.4463 7.52427 22.4463C7.52427 22.4463 6.13922 25.1338 5.85754 29.2272Z" fill="#E06046"/>
<path d="M111.946 78.5186C98.2747 82.3838 83.7285 87.5572 69.7566 90.1284C64.2989 91.1323 58.6685 91.9407 53.1392 91.8151C53.8332 92.0649 54.532 92.3054 55.2339 92.5319C58.4942 93.584 61.8774 94.3971 64.8514 96.0946C68.1148 97.9567 70.9192 100.888 74.6183 101.558C78.179 102.204 82.4602 101.968 85.6396 100.241C95.1544 95.0767 103.883 85.7541 111.946 78.5186Z" fill="#E06046"/>
<path d="M8.1204 40.2148C8.24801 40.4678 8.38029 40.7222 8.52191 40.9783C9.53813 42.8201 7.50257 44.9041 6.56105 46.7847C5.88098 48.1425 5.56662 49.5871 5.54639 51.0503C6.66376 50.6453 7.83872 50.3629 8.96699 50.1814C22.6292 47.9718 36.8594 52.1101 50.3551 49.0471C35.9148 47.9516 20.9562 46.7009 8.1204 40.2148Z" fill="#E06046"/>
<path d="M29.9933 72.2575C30.6516 73.1063 30.8321 74.2142 31.1372 75.243C32.0009 78.1664 33.9337 80.5653 36.2712 82.5825C36.9979 80.8183 38.867 79.5226 40.6068 78.5279C44.7978 76.1337 49.1599 74.0373 53.6481 72.2575C54.9756 71.7315 56.5318 70.9572 56.6454 69.539C49.5723 66.8592 41.7211 69.1495 34.1687 69.5871C30.7154 69.7872 27.2699 69.5886 23.8462 69.1293C25.0476 69.6057 26.2459 70.0821 27.4271 70.5848C28.378 70.9883 29.3615 71.4414 29.9933 72.2575Z" fill="#E06046"/>
<path d="M42.521 96.5487C41.2496 97.7497 40.1431 99.1214 39.2373 100.616C39.3805 100.789 39.5252 100.963 39.67 101.137C38.9977 101.396 38.4732 101.927 37.9783 102.45C35.7358 104.808 33.6131 107.28 31.6227 109.854C35.1351 108.383 38.6646 106.905 41.911 104.915C43.0377 104.225 44.1426 103.461 44.9923 102.45C45.4514 101.902 45.8389 101.266 45.9385 100.558C46.0474 99.7855 45.7035 98.8871 45.1899 98.3067C44.9674 98.0523 42.798 96.288 42.521 96.5487Z" fill="#4B4E51"/>
<path d="M10.8983 89.9435C9.62843 91.1445 8.52039 92.5162 7.61466 94.0105C7.75783 94.1843 7.90256 94.358 8.04729 94.5318C7.375 94.791 6.85055 95.3232 6.35567 95.8446C4.11157 98.2 1.99043 100.673 0 103.246C3.51242 101.775 7.04197 100.296 10.2883 98.3071C11.415 97.6166 12.5199 96.8532 13.3696 95.8415C13.8287 95.2937 14.2162 94.6575 14.3158 93.9499C14.4247 93.1772 14.0808 92.2788 13.5673 91.6984C13.3447 91.4471 11.1753 89.6812 10.8983 89.9435Z" fill="#4B4E51"/>
<path d="M88.3926 89.1104C87.8463 94.3458 87.3032 99.6774 88.3132 104.843C88.542 106.011 88.8828 107.226 89.7232 108.055C90.0095 108.337 90.3597 108.57 90.7534 108.631C91.8894 108.803 92.6956 107.566 93.1873 106.506C98.2218 95.643 102.595 83.6903 100.598 71.826C100.318 70.1642 99.8932 68.4759 98.9205 67.112C97.9479 65.748 96.3185 64.7658 94.686 64.9939C90.6507 65.5603 90.3348 70.2371 90.0998 73.4165C89.7092 78.6535 88.9373 83.8889 88.3926 89.1104Z" fill="#F2D6B1"/>
<path d="M65.9891 68.0193C61.0947 69.9326 56.1163 71.8939 51.983 75.168C51.0477 75.9081 50.1217 76.7709 49.7653 77.9021C49.6439 78.2869 49.5941 78.7074 49.7171 79.0876C50.075 80.1831 51.5348 80.3351 52.6973 80.2886C64.6072 79.8045 77.1862 78.2279 86.824 70.997C88.1748 69.9838 89.482 68.8309 90.2555 67.335C91.0289 65.8392 91.1705 63.9321 90.2321 62.5775C87.9149 59.2305 83.6212 61.0956 80.6908 62.3417C75.8665 64.3961 70.8726 66.1092 65.9891 68.0193Z" fill="#F2D6B1"/>
<path d="M104.15 73.2745C104.537 70.9392 104.403 68.5046 103.647 66.2639C103.659 65.1917 103.371 64.1567 102.676 63.3173C101.867 62.3412 100.65 61.7982 99.4419 61.4071C91.9098 58.9725 85.8015 58.2618 78.2585 60.6654C72.6109 62.4654 39.5362 76.71 30.0011 81.2564C25.2484 83.5219 12.5526 90.4518 12.5526 90.4518C12.5526 90.4518 10.4206 96.896 11.8228 98.0954C12.1184 98.3484 12.439 98.6013 12.8219 98.6773C13.2171 98.7565 13.6233 98.6339 14.0077 98.5144C38.078 91.0306 62.8222 85.8231 86.8613 78.2601C86.6948 85.0224 86.6886 91.7909 86.8473 98.5532C80.9601 95.5864 74.2729 94.4536 67.6776 94.4459C61.0823 94.4365 54.5336 95.5103 48.0581 96.7579C47.0404 96.9534 45.9899 97.1675 45.1433 97.7634C43.1591 99.1568 43.0159 101.984 43.0673 104.403C60.6932 103.106 78.316 106.849 95.2666 111.839C99.2396 112.899 101.849 87.1094 104.15 73.2745Z" fill="#73787F"/>
<path d="M75.6066 34.6334C71.5401 40.668 70.0259 48.0044 68.5973 55.1329C69.7956 55.7769 71.19 54.7791 72.1782 53.8481C75.8991 50.3428 78.2537 46.3457 81.1872 42.1638C84.6001 37.2962 89.0431 33.7691 86.7072 31.1809C83.036 27.1139 77.611 31.6588 75.6066 34.6334Z" fill="#F2D6B1"/>
<path d="M88.7148 26.9848C85.9976 27.4845 83.0486 28.2991 81.5126 30.5863C80.7796 31.6772 80.4699 33.1513 81.0877 34.3104C82.051 36.115 84.5394 36.2578 86.5906 36.2283C93.4427 36.1336 100.41 36.7698 107.068 35.1498C110.182 34.3926 112.244 32.3382 111.308 28.9694C110.732 26.8979 109.425 25.9188 107.337 25.6504C101.403 24.8869 94.5429 25.9126 88.7148 26.9848Z" fill="#F2D6B1"/>
<path d="M135.369 40.9131C135.064 38.0161 134.509 34.86 132.918 32.5278C130.554 29.0613 125.171 27.6818 120.448 27.5344C119.243 26.8346 110.231 24.7677 107.888 26.6282C103.932 29.7673 103.465 34.9965 100.441 39.0433C97.909 42.4322 95.377 45.8196 92.845 49.2085C92.1898 50.0868 91.5222 50.9836 91.158 52C90.5029 53.8279 90.9262 55.8017 91.7634 57.4201C92.9104 59.6375 94.7716 61.3521 96.65 62.9643C97.6958 63.8612 98.7571 64.741 99.834 65.6006C100.33 65.9979 100.903 66.4106 101.566 66.3237C101.941 66.2741 102.288 66.0692 102.623 65.8691C108.484 62.3529 114.344 58.8352 120.205 55.3191C123.957 53.0676 130.056 48.3365 133.41 45.486C134.001 44.9832 134.593 44.4463 134.957 43.7667C135.43 42.8822 135.469 41.8628 135.369 40.9131Z" fill="white"/>
<path d="M117.746 29.1555C120.652 30.8856 123.92 32.203 127.344 33.0254C128.612 29.3758 129.88 25.7262 131.149 22.0766C131.275 21.7135 131.401 21.3256 131.259 20.9563C131.144 20.6553 130.865 20.4101 130.578 20.1929C128.844 18.8925 126.481 18.2998 124.18 18.0593C123.324 17.9693 122.39 17.9383 121.705 18.3293C120.723 18.891 121.29 19.566 121.514 20.2937C121.796 21.2092 121.34 22.2892 121.028 23.1582C120.269 25.2747 119.004 27.2267 117.746 29.1555Z" fill="#F2D6B1"/>
<path d="M135.87 16.3039C136.37 13.7514 136.631 11.0731 135.895 8.57802C135.159 6.08289 133.242 3.80035 130.69 3.26346C128.442 2.79019 126.348 3.66225 124.325 4.50637C122.426 5.29929 120.647 5.52118 119.731 7.65166C119.307 8.63698 119.229 9.73248 119.189 10.8032C119.091 13.4162 119.183 16.037 119.461 18.6377C119.563 19.5827 120.681 20.6999 120.876 21.6293C121.134 22.866 123.161 24.7762 123.161 24.7762C124.514 25.5443 126.046 25.9524 127.585 26.2006C129.378 26.4893 131.44 26.4846 132.731 25.2138C133.377 24.5776 133.732 23.7102 134.043 22.8598C134.823 20.7263 135.435 18.5322 135.87 16.3039Z" fill="#F2D6B1"/>
<path d="M118.977 14.2654C118.764 11.8262 118.556 9.33726 119.114 6.95385C119.675 4.57045 121.144 2.26307 123.414 1.33205C126.497 0.0658696 130.053 1.59739 133.332 0.986026C135.329 0.613619 137.411 -0.540844 139.26 0.300176C140.617 0.917751 141.337 2.48652 141.361 3.97304C141.386 5.46112 140.841 6.89334 140.273 8.26969C139.39 10.4095 138.488 12.9294 136.376 13.8868C136.558 12.827 135.732 11.5112 134.887 10.8424C134.042 10.1736 132.985 9.83846 131.944 9.55139C129.806 8.9602 127.495 8.51641 125.398 9.2395C123.301 9.96259 121.601 12.2513 122.273 14.3601C121.863 13.8201 121.075 13.5998 120.442 13.8465C119.808 14.0948 119.382 14.7884 119.449 15.4649C119.524 16.219 120.674 17.4697 121.12 18.199L120.99 21.1379C120.695 21.366 120.33 21.5522 120.02 21.7198C119.584 20.5219 119.399 19.8935 119.359 18.6521C119.312 17.1919 119.105 15.7194 118.977 14.2654Z" fill="#72594C"/>
<path d="M121.15 22.4648C121.248 22.5486 123.422 24.1329 125.489 25.0593C127.555 25.9856 129.639 26.3518 129.639 26.3518L128.203 30.4871C128.203 30.4871 126.287 29.7687 124.287 27.3713C122.286 24.9755 121.15 22.4648 121.15 22.4648Z" fill="#CEB699"/>
<path d="M131.869 20.4895C130.847 20.2334 129.823 19.9774 128.8 19.7229C128.628 19.6795 128.416 19.591 128.419 19.4297C128.422 19.2481 128.687 19.2016 128.884 19.2186C129.233 19.2481 129.58 19.3117 129.916 19.4095C130.122 19.4685 130.344 19.5414 130.543 19.4793C130.802 19.3986 130.911 19.1302 130.99 18.8897C131.676 16.8026 132.222 14.6784 132.87 12.582C133.268 12.8319 132.507 15.7071 132.428 16.2564C132.375 16.6133 131.774 20.4662 131.869 20.4895Z" fill="#CEB699"/>
<path d="M128.439 10.4714C128.165 10.3038 127.89 10.1363 127.594 10.0075C127.306 9.88334 127.001 9.79799 126.69 9.75455C126.623 9.74524 126.531 9.7592 126.527 9.82592C126.525 9.86006 126.55 9.88799 126.575 9.91282C126.811 10.1518 127.048 10.3923 127.285 10.6313C127.58 10.9307 127.874 11.2287 128.198 11.4987C128.948 12.124 129.832 12.574 130.732 12.9572C130.962 13.055 131.206 13.1512 131.454 13.1248C131.715 13.0969 132.073 12.8316 131.88 12.574C131.776 12.4359 131.469 12.3226 131.32 12.2311C131.121 12.11 130.923 11.989 130.724 11.868C129.963 11.4009 129.202 10.9354 128.439 10.4714Z" fill="#72594C"/>
<path d="M136.144 12.7216C136.356 12.7108 136.569 12.6983 136.768 12.7309C136.964 12.762 137.146 12.8318 137.31 12.942C137.344 12.9652 137.38 13.0195 137.347 13.077C137.33 13.1064 137.304 13.1173 137.28 13.1266C137.048 13.2151 136.816 13.3051 136.585 13.3935C136.295 13.5037 136.006 13.6154 135.719 13.6883C135.053 13.859 134.418 13.8202 133.811 13.7209C133.656 13.6945 133.495 13.6619 133.396 13.5238C133.292 13.3795 133.268 12.9916 133.489 12.8675C133.607 12.8008 133.807 12.8489 133.922 12.8427C134.074 12.8349 134.228 12.8256 134.381 12.8178C134.969 12.7852 135.556 12.7542 136.144 12.7216Z" fill="#72594C"/>
<path d="M131.351 21.6891C131.549 21.7589 131.776 21.8893 131.768 22.0972C131.762 22.2555 131.608 22.3749 131.452 22.3998C131.297 22.423 131.138 22.3749 130.988 22.3268C129.348 21.7962 127.667 21.177 125.952 21.3493C127.731 21.1693 129.62 21.0715 131.351 21.6891Z" fill="#CEB699"/>
<path d="M120.904 14.6971C120.622 14.7313 120.367 14.95 120.311 15.2278C120.272 15.4202 120.324 15.6219 120.417 15.7942C120.509 15.9664 120.641 16.1154 120.77 16.2628C121.043 16.5731 121.316 16.8819 121.589 17.1922C121.498 17.0898 121.57 16.5452 121.569 16.4009C121.565 16.1169 121.565 15.833 121.578 15.549C121.587 15.3162 121.667 15.099 121.525 14.9144C121.396 14.7452 121.103 14.6723 120.904 14.6971Z" fill="#CEB699"/>
<path d="M127.477 13.3621C128.238 13.5468 128.985 13.7981 129.662 14.1923C129.774 14.2574 129.89 14.3304 129.953 14.4499C130.017 14.5693 130.014 14.7462 129.911 14.844C129.837 14.9154 129.731 14.9262 129.636 14.9309C128.413 14.993 127.233 14.6143 126.164 14.0619C126.05 14.003 125.929 13.9331 125.879 13.8059C125.632 13.1635 127.247 13.3063 127.477 13.3621Z" fill="white"/>
<path d="M128.534 14.8722C128.581 14.8287 128.624 14.7822 128.662 14.7341C128.855 14.4904 128.982 14.1879 128.979 13.8775C128.979 13.8682 128.978 13.8589 128.978 13.848C128.505 13.6448 128.01 13.4911 127.507 13.3701C127.345 13.6649 127.272 14.0482 127.311 14.3399C127.322 14.4206 127.34 14.5013 127.368 14.5789C127.748 14.7108 128.137 14.8116 128.534 14.8722Z" fill="#72594C"/>
<path d="M134.118 15.1297C134.656 15.2538 135.178 15.4478 135.64 15.7829C135.716 15.8388 135.794 15.9024 135.831 16.0141C135.869 16.1258 135.853 16.2996 135.772 16.4036C135.713 16.4781 135.635 16.4967 135.565 16.5091C134.675 16.6596 133.847 16.3757 133.114 15.9117C133.036 15.8621 132.954 15.8031 132.927 15.6821C132.794 15.0707 133.955 15.0909 134.118 15.1297Z" fill="white"/>
<path d="M134.772 16.5319C134.809 16.4853 134.843 16.4372 134.874 16.3876C135.032 16.1346 135.147 15.8274 135.167 15.5233C135.167 15.514 135.167 15.5046 135.167 15.4953C134.839 15.3309 134.492 15.2176 134.137 15.1338C133.997 15.4348 133.917 15.815 133.922 16.0989C133.924 16.1765 133.931 16.2541 133.945 16.3301C134.215 16.431 134.488 16.5008 134.772 16.5319Z" fill="#72594C"/>
<path d="M134.779 1.91528C133.883 2.04562 132.971 1.99597 132.067 1.94632C131.074 1.89201 130.081 1.83615 129.09 1.78184C127.993 1.72132 126.888 1.6608 125.797 1.7927C124.706 1.92459 123.616 2.25976 122.74 2.92078C121.889 3.56318 121.279 4.48024 120.842 5.4516C120.421 6.38572 120.149 7.44863 120.437 8.43241C120.521 7.62863 120.843 6.85123 121.351 6.22124C120.663 7.24536 120.442 8.56896 120.759 9.75911C120.94 8.105 121.919 6.57968 123.283 5.62229C124.648 4.66489 126.369 4.263 128.033 4.39489C127.292 3.66249 126.138 3.60508 125.095 3.59267C127.165 2.91147 129.413 3.2156 131.57 3.52749C130.996 3.21871 130.422 2.90992 129.848 2.60113C131.265 2.8944 132.733 2.72682 134.168 2.53906C134.874 2.44751 135.589 2.34821 136.247 2.07821C136.872 1.82218 137.528 1.36133 137.789 0.71582C136.868 1.25116 135.841 1.76166 134.779 1.91528Z" fill="#9B776A"/>
<path d="M172.205 20.4968C173.047 20.9546 173.179 22.1307 173.147 23.1207C173.086 25.0045 172.807 26.8836 172.319 28.7068C171.886 30.3237 171.138 32.0632 169.636 32.7102C160.789 36.5243 151.588 39.3561 142.68 43.0104C133.772 46.6646 125.037 51.2313 117.992 57.9796C121.705 49.166 126.909 41.2337 131.981 33.2021C133.179 31.3044 134.772 31.3075 136.843 30.7799C139.143 30.1934 141.44 29.5913 143.734 28.9753C148.225 27.7681 152.702 26.5034 157.166 25.1829C159.729 24.4242 162.289 23.6468 164.843 22.8492C166.072 22.4659 167.3 22.078 168.528 21.6854C169.113 21.5008 171.727 20.2377 172.205 20.4968Z" fill="#8D939E"/>
<path d="M142.637 43.1907C151.545 39.5365 160.745 36.7046 169.592 32.8905C171.094 32.2435 171.843 30.504 172.275 28.8872C172.764 27.0639 173.043 25.1848 173.103 23.3011C173.117 22.8852 173.1 22.4368 173.016 22.0225C171.01 24.5983 168.396 26.7536 165.761 28.7273C163.691 30.2775 161.57 31.7656 159.32 33.0426C157.301 34.1878 155.189 35.1576 153.081 36.1274C148.35 38.3013 143.617 40.4752 138.886 42.6492C136.314 43.8222 133.755 44.9271 131.035 45.72C128.564 46.4415 128.634 47.9839 128.338 50.268C132.882 47.4905 137.733 45.2017 142.637 43.1907Z" fill="#80868E"/>
<path d="M80.6099 78.5641C76.9247 79.8924 73.1415 80.9351 69.3568 81.9437C50.268 87.0348 30.9722 91.347 11.5317 94.8693C11.3201 96.2923 11.3107 97.6298 11.8756 98.1124C12.1713 98.3653 12.4919 98.6182 12.8747 98.6943C13.27 98.7734 13.6762 98.6508 14.0606 98.5313C38.1309 91.0475 62.875 85.84 86.9142 78.2771C86.9126 78.3702 86.9111 78.4617 86.908 78.5548C90.7457 75.8347 94.4542 72.8973 98.1144 69.9553C98.1549 69.7877 98.1938 69.6201 98.2343 69.4541C92.7937 73.2418 86.8504 76.3126 80.6099 78.5641Z" fill="#62666B"/>
<path d="M95.3195 111.856C99.1852 112.883 101.761 88.4766 104.017 74.4183C102.722 72.3871 101.085 70.5731 99.1774 69.1006C98.8241 69.3861 98.4693 69.6701 98.1145 69.9556C96.8275 75.3244 96.1349 80.8345 96.0571 86.3539C95.9653 92.9905 96.7139 99.8956 94.2021 106.042C80.0964 101.28 65.2234 96.8884 50.5139 99.2128C48.0379 99.6038 45.5557 100.2 43.2883 101.241C43.1109 102.279 43.0969 103.387 43.1202 104.42C60.7461 103.123 78.3674 106.867 95.3195 111.856Z" fill="#62666B"/>
<path d="M87.6099 75.2455C92.579 77.9175 95.8082 82.1614 96.6252 88.6646C96.8088 90.1278 98.5176 90.7687 98.6218 92.2397C100.581 88.1447 101.572 83.6728 102.827 79.3109C103.385 77.3682 104.003 75.4084 104.041 73.3881C104.112 69.5477 101.988 65.8546 98.9331 63.5147C95.8782 61.1747 91.9907 60.087 88.1421 59.9101C85.2849 59.7782 82.3436 60.1428 79.8038 61.454C78.3347 62.2128 77.04 63.2648 75.8059 64.3634C74.4831 65.5396 73.2163 66.7794 72.0118 68.0735C71.0593 69.0977 70.4602 69.8782 72.0787 70.5004C73.5804 71.0792 75.3343 71.1785 76.903 71.5245C78.674 71.914 80.4341 72.3686 82.1569 72.9366C84.0352 73.5557 85.8685 74.3083 87.6099 75.2455Z" fill="#62666B"/>
<path d="M118.732 26.4806C119.78 33.592 116.74 40.6383 113.313 46.9614C110.785 51.6243 108.007 56.1521 104.993 60.5171C112.642 53.5003 120.098 46.2337 126.636 38.1773C128.019 36.4735 129.373 34.7217 131.065 33.322C132.756 31.9224 134.849 30.8843 137.047 30.8843C133.657 37.9088 132.489 44.2661 128.013 50.656C122.8 58.0995 106.459 78.5245 103.367 81.7831C99.2054 80.7558 93.8053 77.5252 91.2406 75.567C90.9932 75.3777 90.7379 75.1558 90.6679 74.8516C90.6057 74.5863 90.6461 74.2822 90.8033 74.0587C93.1019 70.78 96.3326 69.3804 99.8015 65.8673C94.5398 68.9785 90.1824 71.216 86.0708 71.5434C83.4641 71.7513 79.4646 68.274 77.1427 67.0761C74.1936 65.5554 71.3597 63.8284 68.5273 62.1013C73.7983 60.5186 88.9483 52.051 96.0758 42.761C98.2561 39.9198 100.715 37.2276 102.094 33.9241C103.261 31.1295 103.431 27.7452 103.943 24.7598C104.96 24.8653 118.685 26.1656 118.732 26.4806Z" fill="#8D939E"/>
<path d="M89.5163 25.7003C87.6799 25.9284 85.8373 26.1859 84.0741 26.7446C79.5875 28.1659 75.8899 31.4648 73.1525 35.2835C70.415 39.1023 68.5335 43.4517 66.6723 47.7623C66.498 48.1688 66.319 48.6126 66.4342 49.0393C66.5182 49.3497 66.7485 49.5995 66.9898 49.8136C68.5911 51.2288 70.8772 51.5422 73.0171 51.5593C74.3865 51.5701 75.7965 51.4755 77.0368 50.8983C78.7207 50.1131 79.8832 48.5474 80.9507 47.0299C82.896 44.2663 84.7775 41.4577 86.5937 38.6073C91.7853 38.7562 96.9068 41.9046 101.905 40.4957C104.999 39.6236 107.497 36.9221 108.118 33.7768C108.695 30.8472 111.388 26.0789 108.081 25.1696C106.09 24.6234 99.1307 24.7646 97.0936 24.9275C94.5616 25.1308 92.0358 25.3884 89.5163 25.7003Z" fill="#8D939E"/>
<path d="M119.306 24.7393C119.306 24.7393 119.267 32.3348 117.972 37.5035C115.292 48.1978 104.573 61.5377 104.573 61.5377L109.792 43.2339L113.552 42.0919L109.663 38.6285L111.216 25.0527L119.306 24.7393Z" fill="#73787F"/>
<path d="M132.283 30.9851C132.283 30.9851 124.491 41.0416 120.611 45.1319C116.733 49.2237 104.991 60.5169 104.991 60.5169L122.026 50.7288L122.343 45.5601L128.736 43.1441L137.045 30.8857L132.283 30.9851Z" fill="#73787F"/>
<path d="M64.4499 54.9027C64.741 54.5551 65.0569 54.1905 65.4911 54.0555C65.8537 53.9438 66.2458 54.0105 66.6131 54.1036C68.5662 54.597 70.2625 55.781 71.8825 56.9742C72.1658 57.1837 72.4614 57.4072 72.6062 57.7284C72.8038 58.1628 72.6809 58.6734 72.5035 59.1156C72.1938 59.8883 71.7285 60.5881 71.2678 61.2818C71.0764 61.5704 70.8788 61.8636 70.6049 62.0762C70.331 62.2888 69.9606 62.4083 69.6307 62.2997C69.3007 62.1926 69.0611 61.8078 69.1871 61.485C69.2525 61.3174 69.3972 61.1964 69.5295 61.0754C70.2998 60.3771 70.8772 59.4678 71.1807 58.4747C71.2351 58.2947 71.2818 58.107 71.2491 57.9223C71.1853 57.567 70.8554 57.328 70.5488 57.1356C69.4859 56.4715 68.3686 55.8912 67.2123 55.4024C66.9244 55.2798 66.61 55.1619 66.3034 55.2286C65.9128 55.3139 65.6514 55.6708 65.4288 56.0029C65.0304 56.5941 64.6305 57.1853 64.2321 57.778C64.0033 58.1163 63.7076 58.4918 63.2999 58.4903C62.7817 58.4887 62.4798 57.8308 62.6307 57.3373C62.7739 56.8703 63.191 56.5708 63.468 56.186C63.7854 55.7453 64.0982 55.3217 64.4499 54.9027Z" fill="#4B4E51"/>
<path d="M74.2154 41.8035C75.3935 37.074 77.3076 32.4561 80.182 28.5381C77.4134 30.2341 75.0511 32.633 73.1509 35.2833C70.4135 39.102 68.532 43.4514 66.6708 47.7621C66.4949 48.1686 66.3175 48.6124 66.4327 49.0391C66.5167 49.3494 66.747 49.5993 66.9882 49.8134C68.5896 51.2285 70.8757 51.542 73.014 51.5591C73.3408 51.5622 73.6691 51.5575 73.9975 51.5435C73.6178 50.4077 73.4264 49.2005 73.389 48.001C73.3299 45.9109 73.7112 43.8316 74.2154 41.8035Z" fill="#80868E"/>
<path d="M118.008 30.0722C121.036 31.9311 124.64 34.6621 124.603 39.4987C128.646 37.6041 132.92 34.105 136.963 32.2104C138.99 31.2592 141.602 30.4368 143.376 29.0729C139.011 29.4655 135.697 27.0929 131.356 26.494C131.356 26.494 127.26 33.9468 126.096 35.1385C125.963 33.9607 124.7 30.2692 123.993 29.3149C121.145 25.4683 119.259 24.185 118.887 24.0485C118.644 23.96 118.383 23.943 118.126 23.9275C111.758 23.5318 105.245 23.1501 99.1057 24.8833C100.639 24.9019 102.237 24.7545 103.743 24.8538C105.374 24.9609 107.094 25.4854 108.656 25.9385C111.94 26.8927 115.096 28.2846 118.008 30.0722Z" fill="#F46A4A"/>
<path d="M122.899 38.5614C121.172 41.3188 119.755 44.4207 117.135 46.3541C119.821 45.3268 122.558 44.2686 124.777 42.4422C125.991 41.4429 127.053 40.1814 127.488 38.6732C127.597 38.2961 127.666 37.8834 127.524 37.5156C127.148 36.5349 125.899 36.7537 125.107 36.8841C124.058 37.0579 123.461 37.6646 122.899 38.5614Z" fill="#F46A4A"/>
<path d="M125.608 34.7685C124.838 34.829 124.051 35.1518 123.61 35.7849C123.168 36.4179 123.187 37.3878 123.775 37.8874C124.037 38.1093 124.373 38.2195 124.695 38.3374C125.523 38.6415 126.362 39.0388 127.241 38.9658C127.705 38.9286 128.158 38.7548 128.528 38.4739C129.121 38.0239 129.494 37.259 129.368 36.5266C129.108 35.0075 126.849 34.6707 125.608 34.7685Z" fill="#F2CF3D"/>
<path d="M90.9465 53.0968C92.5385 51.9842 94.0916 50.8143 95.6338 49.6334C97.5885 48.136 99.5369 46.6092 101.191 44.7875C102.845 42.9658 104.206 40.8213 104.789 38.4348C104.42 38.3914 104.055 38.5124 103.703 38.6319C101.697 39.3131 99.6816 39.9974 97.7192 40.7949C97.1932 41.456 96.6656 42.117 96.1521 42.7858C89.5287 51.4148 75.9864 59.3346 69.8704 61.6854C70.5753 62.2611 71.5822 62.6552 72.2327 62.663C73.6022 62.677 75.1974 61.701 76.4206 61.1765C79.6653 59.7846 82.8182 58.1817 85.8529 56.3817C87.5897 55.3483 89.2891 54.2528 90.9465 53.0968Z" fill="#80868E"/>
<path d="M88.2759 33.6831C88.3459 34.7181 88.2728 35.7608 88.0596 36.7772C89.7527 35.4272 90.8203 33.469 91.8443 31.5635C91.4646 33.1276 90.9479 34.6591 90.3037 36.1332C94.7 36.3194 99.0435 37.1341 103.368 37.9456C103.872 38.0403 104.434 38.1722 104.71 38.6051C102.045 40.1661 98.8567 40.8178 95.7925 40.4283C94.7498 40.2964 93.7258 40.0482 92.7034 39.7999C91.6436 39.5439 90.5853 39.2863 89.5255 39.0302C88.3926 38.7556 87.3328 38.9092 86.2574 38.7851C86.4037 38.1318 87.0107 37.4553 87.2861 36.8206C87.7219 35.812 88.0549 34.76 88.2759 33.6831Z" fill="#80868E"/>
<path d="M65.9314 86.1677L44.2422 73.838C42.4027 72.7921 41.7615 70.4568 42.8104 68.6227L50.9729 54.3471C52.0218 52.513 54.3639 51.8737 56.2034 52.9195L77.8926 65.2493C79.7321 66.2952 80.3733 68.6305 79.3244 70.4646L71.1619 84.7402C70.113 86.5743 67.7709 87.2136 65.9314 86.1677Z" fill="#4B4E51"/>
<path d="M77.9052 65.2133L76.5855 64.4639C76.7333 65.3095 76.5995 66.2095 76.1388 67.0133L67.9764 81.2889C66.9275 83.123 64.5853 83.7623 62.7459 82.7165L42.3748 71.1377C42.5646 72.2208 43.2198 73.2154 44.2531 73.8035L65.9424 86.1333C67.7819 87.1791 70.124 86.5399 71.1729 84.7058L79.3354 70.4301C80.3858 68.5929 79.7446 66.2592 77.9052 65.2133Z" fill="#393B3D"/>
<path d="M105.589 60.1444C106.023 59.654 106.545 59.1109 107.2 59.1451C107.262 59.3127 107.133 59.4865 107.01 59.6199C105.057 61.7318 102.842 63.5829 100.634 65.4264C100.077 65.8919 99.5119 66.3496 98.835 66.6305C99.9243 65.6684 101.037 64.6893 102.109 63.6978C102.718 63.1345 103.312 62.5573 103.893 61.9645C104.296 61.5549 105.451 60.703 105.589 60.1444Z" fill="#80868E"/>
<path d="M103.191 59.7998C102.48 60.0481 101.834 60.4794 101.333 61.0396C101.261 61.1187 101.191 61.2072 101.18 61.3127C101.165 61.4679 101.292 61.6106 101.44 61.6603C101.588 61.7099 101.751 61.6851 101.904 61.6479C102.522 61.4958 103.084 61.1234 103.463 60.6144C103.496 60.571 103.527 60.526 103.536 60.4732C103.558 60.3553 103.46 60.2436 103.347 60.2048C103.233 60.166 103.11 60.1846 102.992 60.2017L103.191 59.7998Z" fill="#62666B"/>
<path d="M99.8341 62.5527C99.1229 62.801 98.477 63.2324 97.9759 63.7925C97.9044 63.8717 97.8343 63.9601 97.8234 64.0656C97.8079 64.2208 97.9355 64.3636 98.0833 64.4132C98.2312 64.4629 98.3946 64.438 98.5471 64.4008C99.1649 64.2487 99.7267 63.8763 100.106 63.3674C100.139 63.3239 100.17 63.2789 100.18 63.2262C100.201 63.1082 100.103 62.9965 99.9897 62.9577C99.8761 62.9189 99.7532 62.9376 99.6349 62.9546L99.8341 62.5527Z" fill="#62666B"/>
<path d="M96.3512 64.8711C95.64 65.1194 94.9941 65.5507 94.493 66.1109C94.4214 66.19 94.3514 66.2785 94.3405 66.384C94.325 66.5392 94.4526 66.6819 94.6004 66.7316C94.7498 66.7812 94.9117 66.7564 95.0642 66.7192C95.682 66.5671 96.2438 66.1947 96.6235 65.6857C96.6546 65.6423 96.6873 65.5973 96.6967 65.5445C96.7184 65.4266 96.6204 65.3149 96.5084 65.2761C96.3948 65.2373 96.2718 65.2559 96.1535 65.273L96.3512 64.8711Z" fill="#62666B"/>
<path d="M69.3349 51.5369C68.6128 52.0955 67.0053 53.6565 66.7065 54.5192C66.4077 55.3804 66.4652 56.3921 66.9897 57.1401C67.3476 57.6506 67.8876 58.0028 68.4432 58.2868C68.8572 58.4978 69.2991 58.6793 69.7629 58.7026C70.2267 58.7259 70.7215 58.5661 71.0048 58.1999C71.1588 58.0012 71.2413 57.7592 71.344 57.5311C71.6942 56.7537 72.2856 56.1144 72.7929 55.427C73.3002 54.7411 73.7438 53.9436 73.7157 53.0917C73.7111 52.9598 73.694 52.8232 73.6255 52.7084C73.4807 52.4679 73.1664 52.4058 72.8878 52.367C72.0832 52.2538 70.8663 51.4127 69.3349 51.5369Z" fill="#F2D6B1"/>
<path d="M125.775 12.2253C125.495 12.23 125.207 12.247 124.947 12.3557C124.391 12.59 124.09 13.1889 123.917 13.7646C123.735 14.3698 123.646 15.0339 123.872 15.6235C124.105 16.238 124.653 16.6895 125.249 16.9689C126.559 17.5833 128.198 17.4344 129.374 16.5933C130.164 16.0301 130.823 15.1549 131.788 15.0463C132.001 15.023 132.232 15.0447 132.401 15.1751C132.786 15.473 132.624 16.0673 132.653 16.5514C132.705 17.3909 133.425 18.0333 134.166 18.4352C134.644 18.6943 135.238 18.8961 135.716 18.6354C136.027 18.4662 136.216 18.1357 136.356 17.8114C136.605 17.2373 136.762 16.6244 136.82 16.0006C136.863 15.5335 136.832 15.0153 136.513 14.6723C136.186 14.3217 135.659 14.2596 135.179 14.2192C134.495 14.1634 133.782 14.1106 133.144 14.3636C133.025 14.4101 132.902 14.4691 132.775 14.4536C132.678 14.4411 132.593 14.3868 132.509 14.3372C132.045 14.0656 131.516 14.0656 131.145 13.6793C130.732 13.2494 130.353 13.0663 129.764 12.8615C128.487 12.4208 127.129 12.202 125.775 12.2253Z" fill="#393B3D"/>
<path d="M120.848 12.9635C120.692 12.9402 120.534 12.9185 120.38 12.9511C120.225 12.9837 120.076 13.0799 120.025 13.2273C120.011 13.2677 120.004 13.3173 120.029 13.353C120.057 13.3933 120.113 13.4011 120.163 13.4073C120.93 13.4911 121.687 13.6804 122.404 13.9675C123.08 14.2375 123.718 14.5928 124.39 14.8659C124.477 14.9016 124.575 14.9357 124.662 14.9031C124.753 14.869 124.802 14.7775 124.838 14.6875C124.928 14.4578 125.062 13.8495 124.815 13.6571C124.651 13.5299 124.093 13.5951 123.875 13.547C122.871 13.3204 121.867 13.1125 120.848 12.9635Z" fill="#393B3D"/>
</svg>
