<svg width="107" height="143" viewBox="0 0 107 143" fill="none" xmlns="http://www.w3.org/2000/svg">
<path d="M12.4664 44.1378C10.6508 57.0083 9.29561 69.9444 8.40495 82.9134C7.46442 96.6262 6.8716 110.987 0 122.885C7.41027 126.695 16.4779 123.023 24.6733 124.503C28.5794 125.209 32.2104 127.082 36.1322 127.699C43.5952 128.871 50.9584 125.396 58.4841 124.749C63.5003 124.319 68.5293 125.154 73.5597 125.356C85.2238 125.824 97.0047 122.793 107 116.752C97.5419 114.708 90.8328 106.454 85.4318 98.4096C73.6367 80.8387 64.22 61.6658 57.5208 41.582C56.5389 38.6378 55.597 35.6351 53.9154 33.0279C52.2338 30.4206 49.6787 28.2089 46.622 27.6992C44.5656 27.3565 42.4708 27.7991 40.4102 28.1133C36.7378 28.673 33.0056 28.8229 29.2991 28.5687C26.5858 28.3831 21.8403 26.4341 19.3265 27.3851C14.2277 29.3169 13.0948 39.6901 12.4664 44.1378Z" fill="#F46A4A"/>
<path d="M36.1322 127.698C39.6093 128.245 43.0651 127.781 46.5265 127.065C46.0206 125.699 45.5618 124.32 45.1243 122.966C41.4776 111.695 37.8323 100.424 34.1856 89.1522C31.106 79.6329 28.0008 69.9822 27.4379 59.9902C21.6708 80.9908 26.496 103.209 26.8964 125.019C29.9845 125.882 32.9629 127.2 36.1322 127.698Z" fill="#E06046"/>
<path d="M12.767 124.52C11.9163 119.395 12.6345 113.733 13.149 108.462C13.87 101.092 13.9954 93.6787 13.9342 86.2768C13.823 72.9237 13.0777 59.5464 14.0767 46.2105C14.3089 43.1135 14.4329 39.8809 15.325 36.9025C15.8851 35.032 16.4437 33.864 14.7308 33.2529C13.3599 37.0095 12.8269 41.5643 12.4635 44.1373C10.648 57.0077 9.29276 69.9439 8.4021 82.9128C7.46442 96.6257 6.8716 110.987 0 122.885C3.91747 124.9 8.29808 124.821 12.767 124.52Z" fill="#E06046"/>
<path d="M84.326 117.165C68.8414 106.956 61.3627 88.4686 54.7633 71.1133C57.3911 90.5075 64.6147 109.258 75.6531 125.402C81.9861 125.431 88.3204 124.436 94.3512 122.498C90.8884 120.917 87.4782 119.244 84.326 117.165Z" fill="#E06046"/>
<path d="M16.8256 4.72189C17.826 3.80666 19.0914 3.14557 20.4395 3.01707C21.276 2.93711 22.2137 3.1113 22.7324 3.77382C22.9619 4.06795 23.0858 4.42776 23.2056 4.78044C23.4834 5.59858 23.7627 6.48241 23.5205 7.31198C23.2754 8.15011 22.4645 8.78835 21.5938 8.82976C21.1749 8.84975 20.7616 8.74409 20.344 8.7084C18.5984 8.55847 16.9624 9.60507 15.2139 9.72501C12.0702 9.94061 16.0076 5.47008 16.8256 4.72189Z" fill="#F2D6B1"/>
<path d="M56.6144 1.89808C55.654 0.940001 54.4199 0.224659 53.0775 0.0376131C52.2452 -0.0780411 51.3004 0.054747 50.7546 0.692987C50.5124 0.975697 50.3741 1.33123 50.2388 1.67819C49.9253 2.48349 49.6075 3.35446 49.8155 4.19403C50.025 5.04216 50.8074 5.71466 51.6752 5.79319C52.0928 5.83175 52.5103 5.74465 52.9278 5.72609C54.6792 5.65184 56.2682 6.76983 58.0096 6.96544C61.1404 7.31812 57.3996 2.68195 56.6144 1.89808Z" fill="#F2D6B1"/>
<path d="M59.6598 141.932C61.1034 142.198 62.5826 142.266 64.0447 142.138C64.0917 141.954 64.1373 141.769 64.1844 141.585C64.6931 141.912 65.313 142.004 65.9115 142.081C68.622 142.431 71.3509 142.64 74.0828 142.712C71.3467 141.06 68.5963 139.401 65.6408 138.188C64.6147 137.767 63.5488 137.397 62.4429 137.323C61.8444 137.283 61.2203 137.337 60.6916 137.622C60.113 137.933 59.6726 138.611 59.533 139.248C59.4717 139.526 59.3449 141.875 59.6598 141.932Z" fill="#4B4E51"/>
<path d="M40.6824 141.529C39.2531 141.863 37.7781 142.003 36.3118 141.946C36.2562 141.764 36.2006 141.583 36.1465 141.402C35.6534 141.753 35.0392 141.874 34.4449 141.98C31.7544 142.458 29.0383 142.8 26.3136 143.001C28.9685 141.22 31.6362 139.431 34.5304 138.078C35.5351 137.608 36.5811 137.187 37.6841 137.061C38.2798 136.993 38.9068 137.017 39.4483 137.275C40.0411 137.558 40.5128 138.215 40.6838 138.844C40.7565 139.117 40.9945 141.456 40.6824 141.529Z" fill="#4B4E51"/>
<path d="M35.7488 101.892C38.2127 105.49 38.6972 110.109 38.8483 114.508C39.0963 121.689 38.6702 128.895 37.5743 135.994C37.4118 137.046 37.057 138.304 36.0509 138.56C35.2871 138.754 34.4919 138.207 34.1171 137.496C33.7423 136.785 33.6882 135.948 33.6383 135.142C32.8873 122.897 31.4109 110.682 28.8159 98.7064C28.6948 98.1467 28.5979 97.4784 28.9884 97.0672C29.1921 96.8531 29.4871 96.7631 29.775 96.7203C31.495 96.4675 33.1068 97.6726 34.2055 99.0548C35.7773 101.034 36.7378 103.52 36.9159 106.068L35.7488 101.892Z" fill="#F2D6B1"/>
<path d="M36.1364 90.683C36.7791 95.1521 37.4218 99.7054 36.735 104.167C36.5796 105.177 36.3288 106.231 35.6405 106.969C35.4054 107.22 35.1147 107.433 34.7812 107.497C33.8179 107.683 33.0883 106.65 32.6337 105.758C27.9723 96.6142 23.8382 86.5151 25.1422 76.2762C25.3246 74.8426 25.6295 73.3805 26.4147 72.1783C27.1985 70.9761 28.5552 70.0794 29.956 70.2207C33.4174 70.5705 33.845 74.5699 34.1528 77.2871C34.6615 81.7633 35.4952 86.2253 36.1364 90.683Z" fill="#F2D6B1"/>
<path d="M49.6488 88.8825C51.1836 93.1089 52.734 97.4166 52.9649 101.926C53.0176 102.947 52.9848 104.029 52.4618 104.9C52.2837 105.197 52.0414 105.467 51.7279 105.602C50.823 105.994 49.8996 105.144 49.274 104.372C42.8613 96.4543 36.7706 87.4875 35.974 77.2014C35.8628 75.7608 35.8643 74.2658 36.3887 72.9222C36.9131 71.5772 38.0574 70.405 39.4568 70.2379C42.9154 69.8253 44.1424 73.639 44.9946 76.2262C46.3982 80.4883 48.1183 84.6661 49.6488 88.8825Z" fill="#F2D6B1"/>
<path d="M61.9997 127.78C57.5877 114.466 53.1501 101.04 51.497 87.11C51.2192 84.7684 50.7361 80.6491 50.2373 77.8662C49.8212 75.5446 48.4788 75.6945 46.5806 74.3009C44.2236 72.5718 41.1141 72.2706 38.197 72.4362C38.0773 72.4433 37.9548 72.4519 37.8336 72.4605C37.855 72.4019 37.7296 72.3477 37.6056 72.479C37.5102 72.4876 37.4133 72.4976 37.3164 72.5076C34.0701 72.0978 30.6585 72.1706 27.6916 73.547C25.2091 74.6993 23.1414 76.881 22.4417 79.5639C21.6907 82.4453 23.6401 86.1177 24.3683 88.9162C26.2081 95.984 27.6089 103.157 28.8202 110.358C29.5128 114.476 30.1426 118.605 30.7554 122.736C31.562 128.163 32.3429 133.644 31.9624 139.119C34.8154 139.137 37.6712 138.647 40.3546 137.678C41.0856 122.33 37.8736 104.739 37.1368 88.3379C40.5769 95.8098 43.3842 104.337 46.4495 111.663C50.1361 120.476 53.4066 129.537 58.4556 137.644C58.6993 138.034 58.9643 138.439 59.3719 138.652C59.7011 138.823 60.0844 138.849 60.4549 138.863C62.5711 138.943 64.6959 138.763 66.7693 138.331C64.4736 135.208 63.2195 131.46 61.9997 127.78Z" fill="#73787F"/>
<path d="M44.0356 100.103C42.0748 95.363 40.8079 90.2314 37.7654 86.1035C37.6272 87.2015 37.5588 88.2995 37.5474 89.3975C40.7708 96.6081 43.4585 104.68 46.3784 111.662C50.065 120.474 53.3355 129.535 58.3845 137.642C58.6282 138.032 58.8932 138.438 59.3008 138.651C59.63 138.822 60.0133 138.848 60.3838 138.862C62.5 138.942 64.6248 138.762 66.6982 138.329C64.9825 135.998 63.8495 133.316 62.8777 130.575C59.107 125.629 55.7196 120.33 52.3864 115.087C49.3126 110.255 46.2259 105.394 44.0356 100.103Z" fill="#62666B"/>
<path d="M28.7476 110.356C29.4402 114.473 30.0701 118.603 30.6828 122.733C31.4894 128.161 32.2703 133.642 31.8898 139.116C33.9205 139.129 35.9512 138.884 37.9221 138.392C37.5616 137.551 37.2352 136.693 36.926 135.837C32.3444 123.166 30.4805 109.657 29.758 96.2001C29.5884 93.0503 29.5827 89.5778 31.6006 87.1576C33.3577 85.0502 36.2534 84.2749 38.9866 84.0764C41.7213 83.8765 44.503 84.1306 47.1835 83.5567C48.4518 83.2854 49.7244 82.7713 50.7917 82.026C50.5951 80.5568 50.3799 79.0833 50.1619 77.8668C49.7457 75.5451 48.4033 75.695 46.5052 74.3015C46.4681 74.2743 46.4297 74.2472 46.3912 74.2215C44.2479 73.8017 42.0661 73.4705 40.0255 72.7166C39.7576 72.6181 39.4925 72.511 39.2289 72.3996C38.8584 72.4039 38.4878 72.4167 38.1216 72.4381C38.0019 72.4453 37.8793 72.4539 37.7582 72.4624C37.7796 72.4039 37.6542 72.3496 37.5302 72.481C37.4347 72.4895 37.3378 72.4995 37.2409 72.5095C33.9946 72.0997 30.5831 72.1726 27.6161 73.549C25.1337 74.7013 23.0659 76.883 22.3662 79.5659C21.6152 82.4472 23.5647 86.1196 24.2929 88.9182C26.1355 95.9816 27.5377 103.156 28.7476 110.356Z" fill="#62666B"/>
<path d="M69.7719 16.1405C66.2706 10.9846 60.9209 7.4379 55.7095 4.02539C54.816 4.77072 55.1666 6.19569 55.5927 7.27941C57.1959 11.353 59.6227 14.4999 62.014 18.1652C64.7971 22.4301 66.1865 27.0848 68.9867 26.0568C73.3859 24.4419 71.4991 18.6821 69.7719 16.1405Z" fill="#F2D6B1"/>
<path d="M66.1295 29.724C68.1588 28.5203 70.2836 26.9954 70.8393 24.6995C71.1044 23.6058 70.9191 22.3264 70.0812 21.5754C68.7759 20.406 66.7409 21.0242 65.1049 21.6525C59.6413 23.7485 53.8698 25.2892 49.0104 28.556C46.7374 30.0838 45.6915 32.3455 47.4343 34.7828C48.5059 36.2806 49.8441 36.6847 51.5969 36.2863C56.5789 35.1526 61.7746 32.3041 66.1295 29.724Z" fill="#F2D6B1"/>
<path d="M7.52572 32.2826C5.49644 31.0789 3.37169 29.554 2.81592 27.2581C2.55086 26.1643 2.73612 24.885 3.57405 24.134C4.87939 22.9646 6.91437 23.5828 8.55033 24.2111C14.0154 26.3071 19.7854 27.8478 24.6449 31.1146C26.9178 32.6424 27.9638 34.9041 26.221 37.3414C25.1493 38.8392 23.8112 39.2433 22.0584 38.8449C17.075 37.7112 11.8792 34.8641 7.52572 32.2826Z" fill="#F2D6B1"/>
<path d="M29.1038 31.2469C27.9752 31.6253 26.3107 32.1693 25.383 32.9589C23.5461 34.5238 23.8924 35.449 23.7699 38.0091C23.5618 42.3283 24.4681 46.6318 25.3673 50.8653C26.1212 54.4106 26.8751 57.9573 27.6289 61.5026C27.8241 62.4207 28.0265 63.3573 28.4754 64.1669C29.2834 65.6233 30.7911 66.4686 32.3031 66.8455C34.3765 67.3624 36.5269 67.1368 38.6232 66.8427C39.7889 66.6785 40.9531 66.4943 42.1131 66.2887C42.6489 66.1945 43.2361 66.0602 43.5539 65.5848C43.7334 65.3163 43.7975 64.9765 43.856 64.6481C44.8948 58.8897 45.9337 53.1312 46.9726 47.3728C47.6381 43.6861 48.0299 37.0867 48.0841 33.3187C48.0941 32.6547 48.0812 31.9694 47.8504 31.3511C47.5497 30.5473 46.9156 29.9447 46.2472 29.4721C44.2122 28.0286 42.0319 30.4116 39.635 30.1132C36.0752 29.6691 32.3415 29.6434 29.1038 31.2469Z" fill="white"/>
<path d="M32.4541 31.0276C35.1688 31.8557 38.6787 31.7886 41.6314 31.77C41.9264 28.5289 42.2214 25.2877 42.5164 22.0465C42.5463 21.7238 42.5705 21.3812 42.3796 21.107C42.2257 20.8843 41.9492 20.7386 41.6713 20.6201C39.9969 19.9076 37.9548 19.8976 36.0338 20.1661C35.3199 20.266 34.5518 20.4288 34.0744 20.8871C33.3889 21.5439 32.7092 21.0313 33.0384 21.5796C33.4531 22.2721 33.5699 22.5334 33.5443 23.3101C33.4687 25.609 33.0882 29.1971 32.4541 31.0276Z" fill="#F2D6B1"/>
<path d="M29.2435 13.256C29.1965 14.1584 29.453 15.0465 29.7309 15.9047C30.4121 17.9993 31.2429 20.0454 32.2162 22.0215C32.5696 22.7397 32.9472 23.4565 33.4845 24.049C34.3623 25.0185 35.6192 25.5896 36.9074 25.8052C38.1957 26.0194 39.5196 25.8995 40.8021 25.651C42.297 25.3597 43.9187 24.7586 44.5671 23.3793C44.8906 22.6897 44.9191 21.9001 44.9177 21.1377C44.9134 19.2244 44.7581 17.3125 44.4545 15.4235C44.1068 13.2603 43.5368 11.0657 42.2343 9.30666C40.9318 7.54757 38.76 6.29679 36.5968 6.61092C34.6901 6.88792 33.2949 8.18296 31.9483 9.43802C30.6828 10.616 29.3461 11.307 29.2435 13.256Z" fill="#F2D6B1"/>
<path d="M30.5132 18.7937C29.604 16.9418 28.6834 15.0514 28.3956 13.0096C28.1077 10.9664 28.5538 8.70898 30.0458 7.28686C32.0708 5.35501 35.317 5.47637 37.6926 4C39.1405 3.10046 40.4159 1.56126 42.1174 1.65978C43.3657 1.73117 44.406 2.74493 44.8777 3.90576C45.3494 5.06658 45.3608 6.35734 45.3352 7.61098C45.2953 9.55996 45.358 11.8131 43.9985 13.2066C43.8189 12.3185 42.7729 11.5361 41.9079 11.2676C41.0443 10.9992 40.1152 11.0578 39.216 11.1477C37.3648 11.3333 35.4239 11.6874 34.0046 12.8939C32.5852 14.1005 31.9525 16.4135 33.121 17.8657C32.6351 17.5658 31.9525 17.6329 31.5335 18.0199C31.1131 18.4068 30.992 19.0822 31.25 19.5919C31.5378 20.1616 32.8175 20.7941 33.389 21.231L34.1813 23.5784C34.0203 23.8483 33.7922 24.1053 33.5999 24.3294C32.8945 23.5213 32.5582 23.0829 32.1492 22.1206C31.6646 20.9897 31.0547 19.8975 30.5132 18.7937Z" fill="#72594C"/>
<path d="M34.4478 23.6328C34.5447 23.6814 36.7065 24.9921 38.5761 25.3319C41.791 25.9173 42.4836 25.1677 42.4836 25.1677L41.8081 28.7701C41.8081 28.7701 40.1038 28.5688 37.9919 27.0125C35.8799 25.4562 34.4478 23.6328 34.4478 23.6328Z" fill="#CEB699"/>
<path d="M42.4837 19.7627C41.6058 19.8727 40.7294 19.9826 39.8516 20.0925C39.7034 20.1111 39.511 20.1054 39.464 19.9783C39.4112 19.8355 39.6036 19.7184 39.7632 19.6699C40.044 19.5871 40.3347 19.5314 40.6282 19.5057C40.8078 19.49 41.003 19.48 41.1398 19.3701C41.3165 19.2287 41.3208 18.9845 41.3094 18.7718C41.2111 16.9242 40.9902 15.0894 40.8591 13.2461C41.2467 13.3218 41.5274 15.8105 41.6329 16.2674C41.6984 16.5644 42.4024 19.7727 42.4837 19.7627Z" fill="#CEB699"/>
<path d="M36.6637 13.1118C36.3944 13.1147 36.1237 13.1161 35.8557 13.1561C35.595 13.1946 35.3399 13.2689 35.1005 13.3774C35.0492 13.4002 34.9893 13.4516 35.0164 13.5002C35.0306 13.5259 35.0606 13.5345 35.0891 13.5402C35.3641 13.6058 35.6391 13.673 35.9142 13.7386C36.2562 13.8214 36.5996 13.9043 36.9502 13.9528C37.7625 14.067 38.5904 13.9942 39.4013 13.8686C39.6093 13.8357 39.8245 13.7972 39.9898 13.6672C40.1622 13.5316 40.3005 13.1818 40.0482 13.0833C39.9129 13.0304 39.6435 13.0861 39.4967 13.0875C39.3015 13.089 39.1063 13.0904 38.911 13.0933C38.16 13.099 37.4119 13.1061 36.6637 13.1118Z" fill="#72594C"/>
<path d="M43.5895 12.4923C43.7634 12.4566 43.9386 12.4195 44.1082 12.4209C44.2735 12.4224 44.4346 12.4581 44.5842 12.528C44.6155 12.5437 44.6526 12.5837 44.6312 12.6351C44.6212 12.6608 44.5999 12.6751 44.5828 12.6851C44.4018 12.7879 44.2208 12.8921 44.0398 12.9949C43.8147 13.1234 43.5881 13.2534 43.3601 13.349C42.8285 13.5746 42.2984 13.6232 41.7825 13.616C41.65 13.6146 41.5132 13.606 41.4134 13.5032C41.3094 13.3961 41.2396 13.0763 41.4092 12.945C41.499 12.875 41.67 12.8907 41.7654 12.8707C41.8908 12.845 42.0177 12.8179 42.1431 12.7922C42.6247 12.6922 43.1078 12.5923 43.5895 12.4923Z" fill="#72594C"/>
<path d="M32.1492 18.5471C31.9397 18.6584 31.8071 18.9097 31.847 19.1439C31.8755 19.3067 31.9767 19.4495 32.1021 19.5566C32.2275 19.6636 32.3743 19.7407 32.5211 19.8178C32.8289 19.9778 33.1367 20.1391 33.4445 20.299C33.3419 20.2462 33.2336 19.7964 33.188 19.6836C33.0982 19.4623 33.0127 19.2381 32.9358 19.0111C32.8731 18.8255 32.8674 18.6313 32.7007 18.5285C32.5482 18.4357 32.2974 18.4671 32.1492 18.5471Z" fill="#CEB699"/>
<path d="M36.8817 15.4994C37.533 15.4123 38.1942 15.3837 38.8426 15.4865C38.9495 15.5037 39.0621 15.5265 39.149 15.6007C39.2359 15.675 39.2872 15.8149 39.2359 15.922C39.1989 16.0005 39.1205 16.0419 39.0464 16.0748C38.1101 16.4946 37.0713 16.5574 36.068 16.4475C35.9611 16.436 35.8457 16.4175 35.7688 16.3332C35.3783 15.9063 36.6836 15.5265 36.8817 15.4994Z" fill="white"/>
<path d="M38.1671 16.3651C38.1899 16.3165 38.2099 16.268 38.2256 16.218C38.3025 15.9681 38.3096 15.6911 38.2127 15.4484C38.2099 15.4413 38.2056 15.4341 38.2028 15.427C37.771 15.4113 37.3378 15.4413 36.9074 15.4984C36.8703 15.7797 36.9302 16.1024 37.0485 16.3194C37.0813 16.3794 37.1212 16.4365 37.1653 16.4907C37.5031 16.4765 37.8394 16.4379 38.1671 16.3651Z" fill="#72594C"/>
<path d="M42.609 14.8708C43.0679 14.8052 43.5353 14.798 43.997 14.9208C44.074 14.9408 44.1538 14.9679 44.2179 15.0436C44.282 15.1193 44.3219 15.2606 44.2892 15.3677C44.2649 15.4448 44.2108 15.4834 44.1595 15.5134C43.5097 15.9017 42.7758 15.9303 42.0618 15.7889C41.9848 15.7732 41.9036 15.7518 41.8452 15.6661C41.5573 15.2264 42.4708 14.8908 42.609 14.8708Z" fill="white"/>
<path d="M43.5482 15.7726C43.5624 15.7255 43.5753 15.6769 43.5852 15.6284C43.6308 15.3814 43.628 15.1058 43.551 14.8602C43.5482 14.8531 43.5453 14.8459 43.5425 14.8374C43.2361 14.8074 42.9297 14.8245 42.6276 14.8673C42.6105 15.1458 42.6632 15.4699 42.7544 15.6898C42.7786 15.7497 42.81 15.8097 42.8428 15.864C43.0808 15.8625 43.3173 15.8354 43.5482 15.7726Z" fill="#72594C"/>
<path d="M39.1063 4.29015C38.4451 4.66567 37.7183 4.90269 36.9958 5.13828C36.2034 5.39672 35.4111 5.65515 34.6188 5.91359C33.7424 6.19916 32.8603 6.48758 32.048 6.92307C31.2343 7.35856 30.4861 7.95253 30.0016 8.73784C29.5314 9.50173 29.3333 10.407 29.2877 11.3022C29.2449 12.1646 29.3547 13.0813 29.8776 13.7667C29.6995 13.1099 29.7138 12.4017 29.919 11.752C29.6938 12.7657 29.9232 13.8723 30.5332 14.7105C30.1712 13.3569 30.4719 11.8605 31.2471 10.694C32.0223 9.52743 33.245 8.68787 34.586 8.28522C33.7851 7.9354 32.8646 8.24095 32.0451 8.54937C33.4559 7.38568 35.3057 6.9402 37.087 6.52899C36.544 6.46045 36.0011 6.39334 35.4596 6.32481C36.6566 6.12491 37.7525 5.54521 38.817 4.96266C39.3414 4.67566 39.8687 4.3801 40.3019 3.96746C40.7123 3.57623 41.0857 3.0151 41.0928 2.42969C40.5356 3.13361 39.8872 3.84609 39.1063 4.29015Z" fill="#9B776A"/>
<path d="M34.1143 42.9324C35.7146 49.8359 37.3164 56.7552 38.1557 63.793C40.0753 51.9548 41.9948 40.1181 43.9144 28.28C46.3227 28.3471 48.7396 28.063 51.0681 27.4404C50.729 35.7019 53.0247 33.039 52.9834 41.3061C52.9592 46.2649 51.1536 62.2024 51.4173 67.1541C51.5997 70.6037 51.366 74.002 51.8277 77.4245C51.8975 77.9442 51.9702 78.4782 51.8548 78.9908C51.7051 79.6519 51.2548 80.2102 50.7375 80.6471C48.4389 82.5961 45.0801 82.4219 42.0817 82.1434C41.3208 82.072 40.5299 81.9921 39.8786 81.5923C38.7885 80.9241 38.3766 79.5605 38.1144 78.3069C37.6812 76.2351 37.4233 74.1262 37.342 72.0101C37.1625 73.3751 36.9829 74.7387 36.8034 76.1037C36.5183 78.2697 36.0566 80.7227 34.2026 81.8736C33.0825 82.5689 31.6888 82.6161 30.3707 82.5961C27.2313 82.5489 24.0976 82.2405 21.0095 81.6751C20.4651 72.3942 18.9446 50.7912 19.3978 41.9472C19.8509 33.1046 23.7713 38.0078 21.856 28.9782C22.0484 29.6807 26.657 29.982 27.3424 30.0291C28.0136 30.0748 29.1993 29.8506 29.7479 30.2233C30.1697 30.5103 30.603 31.8867 30.831 32.3622C32.437 35.7004 33.2806 39.3414 34.1143 42.9324Z" fill="#8D939E"/>
<path d="M63.0984 21.6283C59.5329 16.9193 56.7227 11.6377 54.8074 6.04637C55.9674 5.49237 57.1288 4.93837 58.2888 4.38295C58.4698 4.29728 58.665 4.20875 58.8617 4.24445C59.0455 4.27729 59.1937 4.41436 59.3277 4.54429C64.9552 9.95862 70.3319 15.8955 73.3944 23.0847C73.4756 23.2746 73.5568 23.4759 73.5369 23.6815C73.5169 23.89 73.3972 24.0727 73.2804 24.2455C67.2111 33.188 57.9511 39.4761 48.3234 44.3679C48.5914 39.9488 48.7709 35.1727 46.3198 31.4874C45.8866 30.8363 44.2635 29.0401 45.1085 28.4904C45.2425 28.4033 45.6401 28.5361 45.8111 28.4961C46.1659 28.4133 46.4438 28.2091 46.7602 28.0307C47.4599 27.6366 48.1553 27.2382 48.865 26.8641C51.7322 25.3521 54.7276 24.0856 57.8086 23.079C59.5486 22.5107 61.3128 22.0252 63.0984 21.6283Z" fill="#8D939E"/>
<path d="M10.886 24.5888C14.3289 19.7899 17.0038 14.4369 18.7751 8.79843C17.6009 8.27442 16.4266 7.7504 15.2524 7.22496C15.07 7.14358 14.8719 7.05933 14.6752 7.10074C14.4914 7.13929 14.3489 7.27922 14.2164 7.41201C8.72991 12.9705 3.50567 19.0431 0.629911 26.3093C0.554384 26.5021 0.477431 26.7034 0.503082 26.909C0.528733 27.1161 0.652712 27.296 0.773842 27.4659C7.07114 36.2499 16.4879 42.2982 26.2367 46.94C25.8547 42.5295 25.5541 37.7591 27.9097 34.0125C28.3258 33.35 29.9033 31.5138 29.044 30.984C28.9072 30.8998 28.5139 31.0426 28.3415 31.0083C27.9852 30.9355 27.7002 30.737 27.381 30.5671C26.6713 30.1916 25.9659 29.8104 25.2463 29.4548C22.3406 28.017 19.3138 26.8276 16.2086 25.901C14.4586 25.3798 12.6801 24.94 10.886 24.5888Z" fill="#8D939E"/>
<path d="M31.1972 28.1406C31.1972 28.1406 33.9319 36.0708 35.109 44.3664C36.2861 52.6621 38.3994 64.3261 38.3994 64.3261L28.2346 44.0309L31.3839 41.3195L26.6257 38.9892L23.0431 27.8379L31.1972 28.1406Z" fill="#73787F"/>
<path d="M43.8118 27.4409C43.8118 27.4409 41.821 35.7381 40.9175 44.0666C40.014 52.3965 38.2854 64.1233 38.2854 64.1233L47.7762 43.504L44.5399 40.8982L49.2184 38.4124L51.4173 25.332L43.8118 27.4409Z" fill="#73787F"/>
<path d="M19.6429 43.5167C20.0148 43.1697 20.4067 42.8456 20.8186 42.5486C21.5767 42.0003 22.4845 41.3906 22.5329 40.4554C19.7897 40.6439 17.169 39.3803 14.7877 38.0038C11.1054 35.8749 7.62544 33.3934 4.41195 30.6048C3.01825 29.3969 1.64877 28.0875 0.528684 26.624C0.507308 26.7183 0.495907 26.8125 0.507308 26.9082C0.532959 27.1152 0.656938 27.2951 0.778068 27.465C5.63607 34.2386 12.3509 39.386 19.6429 43.5167Z" fill="#80868E"/>
<path d="M5.72437 23.8508C6.94706 24.0336 8.16975 24.2149 9.39245 24.3977C8.68277 25.2201 7.85054 25.9369 6.92996 26.5137C8.32081 25.9483 9.68316 25.3115 11.0099 24.609C10.97 24.6004 10.9301 24.5918 10.8902 24.5847C14.3345 19.7858 17.0079 14.4328 18.7793 8.79434C18.1579 8.51734 17.538 8.24034 16.9167 7.96191C15.2181 14.36 11.1766 20.1099 5.72437 23.8508Z" fill="#80868E"/>
<path d="M73.2818 24.2394C73.3987 24.0666 73.5184 23.8838 73.5383 23.6754C73.5412 23.6382 73.5412 23.6011 73.5383 23.5654C72.6705 24.722 71.4435 25.5944 70.2408 26.4211C64.3297 30.4818 58.2447 34.2899 52.0087 37.8294C51.6709 38.0208 51.2961 38.2635 51.2406 38.6476C51.2135 38.8346 51.2691 39.0231 51.3289 39.203C51.6581 40.1968 52.1155 41.1477 52.6813 42.0287C60.6944 37.4953 68.1346 31.8211 73.2818 24.2394Z" fill="#80868E"/>
<path d="M66.0269 22.7659C65.4811 22.3704 65.0109 21.8692 64.6503 21.2981C65.1933 21.5851 65.7975 21.7564 66.4103 21.7964C62.1579 17.5486 59.2152 12.0015 58.0808 6.09315C57.9825 5.58484 57.9098 5.0337 57.9768 4.52539C56.9208 5.02941 55.8635 5.53487 54.8075 6.03889C56.7042 11.5774 59.4817 16.8119 63.0001 21.488C63.925 22.0991 64.9325 22.5532 66.0269 22.7659Z" fill="#80868E"/>
<path d="M20.6803 75.089C19.66 64.5159 19.0842 53.8886 19.0629 43.2655C19.0614 42.4445 22.5314 40.4541 22.5314 40.4541C22.5314 40.4541 21.7548 44.8532 21.5952 45.6771C20.9625 48.934 20.5064 52.2266 20.23 55.532C19.6785 62.1086 20.0476 68.5424 20.6803 75.089Z" fill="#80868E"/>
<path d="M51.671 60.0467C51.6482 64.1318 51.5556 61.0705 51.3988 65.1527C51.8449 53.4373 52.2652 48.6641 56.1043 37.5898C55.6098 39.0177 51.2335 38.4522 51.2335 38.4522C51.2335 38.4522 51.0882 44.1336 51.1865 45.5057C51.537 50.3446 51.6981 55.1964 51.671 60.0467Z" fill="#80868E"/>
<path d="M39.1932 21.177C39.1932 21.177 40.7294 21.8952 41.4975 21.7624C42.2657 21.6296 42.9882 20.6787 42.9882 20.6787C42.9882 20.6787 42.7017 22.6977 41.6486 22.9347C40.5955 23.1717 39.1932 21.177 39.1932 21.177Z" fill="#72594C"/>
<path d="M28.2616 30.9176C32.2988 32.9465 37.6983 34.697 40.2121 38.4579C40.9816 37.3 40.785 36.7374 41.7626 35.7493C43.7049 33.7847 45.6473 31.82 47.5896 29.8553C49.7101 27.7107 51.8619 25.8359 54.4512 24.291C52.1227 24.8265 49.7956 25.0678 47.4671 25.6032C46.3484 25.8602 45.2183 26.1215 44.1809 26.6141C43.1819 27.0881 42.2898 27.7664 41.2923 28.2461C39.5395 29.0885 37.4945 29.2756 35.5992 28.8387C34.6316 28.6145 33.7082 28.2361 32.7562 27.9534C31.5378 27.5907 30.2781 27.3866 29.0183 27.2209C25.5198 26.7597 22.0413 26.6826 18.5186 26.6883C21.8917 27.8435 25.0766 29.317 28.2616 30.9176Z" fill="#F46A4A"/>
<path d="M38.4151 39.9396C38.3225 42.7039 38.6531 45.5224 39.6164 48.0297C40.5812 50.5369 42.2128 52.713 44.2948 53.8438C43.8417 53 43.4113 52.1218 43.1833 51.1523C42.7387 49.259 43.1106 47.2444 43.4398 45.3168C43.769 43.3892 44.0455 41.3246 43.4341 39.5012C43.1178 38.556 42.5791 37.7436 41.9934 37.0125C41.2167 36.0445 40.024 35.2549 39.025 36.2986C38.3068 37.0468 38.4493 38.9258 38.4151 39.9396Z" fill="#F46A4A"/>
<path d="M37.2337 36.6104C37.0855 36.9203 36.9972 37.3315 37.1853 37.6128C37.2964 37.7798 37.4803 37.8569 37.6541 37.9141C38.7186 38.261 39.853 38.1768 40.9403 37.944C41.4704 37.8312 42.0162 37.6713 42.4323 37.2744C42.8499 36.8775 43.1007 36.1821 42.8869 35.6067C42.6432 34.9513 41.9435 34.7243 41.3279 34.68C39.8473 34.5744 38.0175 34.9684 37.2337 36.6104Z" fill="#F2CF3D"/>
<path d="M37.6627 67.6787C37.7582 67.0861 37.8793 66.4964 37.9577 65.901C38.1458 64.4704 38.0931 62.9754 38.6603 61.6504C38.3667 66.4293 37.486 71.1883 37.7069 75.9715C37.7069 74.6751 37.258 73.4343 37.2979 72.1407C37.3435 70.6486 37.4248 69.1536 37.6627 67.6787Z" fill="#80868E"/>
<path d="M36.5639 65.2177C36.5141 65.4661 36.4927 65.7817 36.7093 65.9102C36.8717 66.0073 37.0926 65.9302 37.218 65.7874C37.3434 65.6446 37.3947 65.4547 37.4446 65.272C37.4788 65.1406 37.5144 65.0107 37.5486 64.8793C37.6484 64.5052 37.5087 63.984 37.037 64.2154C36.7235 64.3724 36.6238 64.9178 36.5639 65.2177Z" fill="#62666B"/>
<path d="M35.8144 69.2821C35.7645 69.5306 35.7432 69.8461 35.9598 69.9746C36.1222 70.0717 36.3431 69.9946 36.4685 69.8518C36.5939 69.7091 36.6452 69.5192 36.6951 69.3364C36.7293 69.205 36.7649 69.0751 36.7991 68.9437C36.8989 68.5697 36.7592 68.0485 36.2875 68.2798C35.974 68.4354 35.8743 68.9823 35.8144 69.2821Z" fill="#62666B"/>
<path d="M35.1332 73.5112C35.0833 73.7596 35.0619 74.0752 35.28 74.2037C35.4424 74.3008 35.6633 74.2237 35.7873 74.0809C35.9127 73.9381 35.964 73.7482 36.0139 73.5654C36.0481 73.4355 36.0837 73.3041 36.1179 73.1742C36.2177 72.8001 36.078 72.279 35.6063 72.5103C35.2942 72.6659 35.193 73.2113 35.1332 73.5112Z" fill="#62666B"/>
</svg>
