<svg width="130" height="143" viewBox="0 0 130 143" fill="none" xmlns="http://www.w3.org/2000/svg">
<path d="M5.15057 78.7825C4.41611 78.8603 3.66717 78.7666 2.93997 78.8992C1.56377 79.15 0.388937 80.2726 0.0818288 81.6316C-0.22528 82.9891 0.35417 84.5037 1.49134 85.3165C2.7922 86.2446 4.61602 86.1985 6.0661 85.5255C7.51617 84.8525 8.6461 83.6434 9.5906 82.3579C10.0889 81.6806 10.551 80.96 10.7915 80.1559C11.032 79.3517 11.0291 78.4452 10.6264 77.7088C10.2222 76.9724 9.36896 76.4565 8.536 76.592C7.79575 76.713 7.32495 77.2016 6.92368 77.7665C6.47895 78.3962 5.95455 78.6974 5.15057 78.7825Z" fill="#F2D6B1"/>
<path d="M90.5831 59.5285C102.655 64.4254 116.247 65.133 129.002 62.4597C126.552 68.2185 123.902 74.2424 118.911 78.044C113.799 81.9365 106.993 82.8978 101.525 86.2758C96.5674 89.3381 93.0024 94.1976 88.3436 97.6924C83.6254 101.233 77.9598 103.254 72.3899 105.222C60.4228 109.453 48.3311 113.713 35.7151 115.166C34.3447 115.323 32.8902 115.435 31.6444 114.845C29.7656 113.954 28.9413 111.785 28.2894 109.818C21.4258 89.1047 12.8587 35.7427 16.7728 32.7149C21.4099 29.1279 27.6448 31.4553 32.9178 31.4467C34.9922 31.4438 36.9 30.7002 38.9368 30.6152C41.398 30.5128 43.7231 31.5894 45.9308 32.552C56.2884 37.07 65.1149 44.2958 74.4208 50.5474C79.5403 53.9859 84.8509 57.2039 90.5831 59.5285Z" fill="#F46A4A"/>
<path d="M60.8458 106.524C51.9107 96.3074 42.9755 86.0913 34.0419 75.8766C31.2257 72.6557 27.0856 69.1105 23.1902 70.9004C21.759 71.5576 20.7928 72.7854 20.0757 74.2063C22.4688 87.7558 25.5182 101.445 28.2908 109.811C28.9427 111.776 29.767 113.945 31.6458 114.837C32.8917 115.428 34.3461 115.317 35.7165 115.159C44.9312 114.098 53.8663 111.539 62.6768 108.587C62.0554 107.903 61.4469 107.211 60.8458 106.524Z" fill="#E06046"/>
<path d="M49.7581 60.543C60.8024 74.2884 72.6753 87.3724 85.2914 99.7056C86.3431 99.0887 87.3629 98.4201 88.3422 97.6851C92.8619 94.2941 96.3516 89.6191 101.083 86.5466C83.1648 79.4952 64.9961 72.2723 49.7581 60.543Z" fill="#E06046"/>
<path d="M90.5832 59.5213C84.851 57.1954 79.5403 53.9788 74.4238 50.5402C65.1178 44.2872 56.2899 37.0628 45.9337 32.5449C43.9694 31.6874 41.9123 30.7421 39.7495 30.6152C41.3488 32.4253 43.881 34.2584 45.2181 35.6131C47.6083 38.0356 50 40.4567 52.3902 42.8792C56.3131 46.8524 60.2432 50.8342 64.534 54.4097C72.3899 60.9553 81.425 66.0957 91.0815 69.5083C96.7789 71.523 102.676 72.9368 108.623 74.0248C111.145 74.486 113.734 74.9082 115.979 76.1418C116.96 76.6808 117.868 77.4129 118.582 78.279C118.692 78.1983 118.804 78.1191 118.912 78.0355C123.904 74.2338 126.554 68.2113 129.004 62.4511C116.247 65.1259 102.655 64.4183 90.5832 59.5213Z" fill="#E06046"/>
<path d="M52.0598 141.863C53.7025 142.163 55.3858 142.241 57.0488 142.097C57.1024 141.889 57.1546 141.682 57.2082 141.473C57.7876 141.842 58.4917 141.945 59.174 142.032C62.2581 142.427 65.3625 142.665 68.4698 142.744C65.3567 140.878 62.2277 139.004 58.864 137.634C57.6964 137.158 56.4839 136.74 55.225 136.657C54.5442 136.612 53.8343 136.672 53.2317 136.994C52.5726 137.345 52.0728 138.112 51.9135 138.831C51.8454 139.144 51.702 141.797 52.0598 141.863Z" fill="#4B4E51"/>
<path d="M34.1896 142.094C32.6135 142.386 30.9983 142.468 29.4019 142.334C29.3498 142.136 29.2991 141.935 29.2469 141.736C28.6921 142.092 28.0156 142.195 27.3623 142.281C24.4042 142.67 21.4244 142.909 18.4417 142.997C21.4229 141.196 24.4201 139.386 27.6433 138.059C28.7631 137.597 29.9249 137.193 31.133 137.109C31.7864 137.063 32.4687 137.119 33.0481 137.425C33.6812 137.759 34.165 138.494 34.32 139.184C34.3867 139.484 34.533 142.03 34.1896 142.094Z" fill="#4B4E51"/>
<path d="M29.021 137.947C28.6386 137.229 28.5821 136.385 28.5299 135.569C27.7419 123.201 26.2165 110.867 23.551 98.7757C23.4264 98.2094 23.3265 97.5364 23.7234 97.1199C23.9291 96.9037 24.2304 96.8115 24.523 96.7682C26.273 96.5103 27.9157 97.7237 29.0341 99.1187C30.6377 101.115 31.6184 103.624 31.8053 106.198L29.021 137.947Z" fill="#F2D6B1"/>
<path d="M17.019 74.6651C17.019 75.0427 20.0177 87.053 21.6938 100.901C23.6103 116.729 25.718 138.428 25.718 138.428L33.8651 137.972C33.8651 137.972 33.0973 119.426 33.4754 108.343C33.8651 96.9002 32.9148 88.8472 32.9148 88.8472C32.9148 88.8472 35.4122 95.5066 40 105.893C44.0475 115.054 52.1757 137.118 52.1757 137.118L60.9544 138.429L42.0237 77.7059L28.9021 71.2266L17.019 74.6651Z" fill="#73787F"/>
<path d="M45.0398 87.3434L42.3019 78.5612C36.7623 77.4155 29.5062 70.9578 24.1028 72.6137C21.6604 73.3616 20.7377 80.8396 18.6545 82.3182C19.628 87.1344 20.8376 93.7636 21.6996 100.877C23.6161 116.705 25.7238 138.404 25.7238 138.404L33.1886 137.986C30.5593 132.784 29.1281 127.822 27.623 122.178C25.1922 113.063 24.1043 105.822 23.4408 96.7309C23.2163 93.6512 23.8102 90.315 28.8123 87.8593C32.034 86.2813 38.9874 90.5686 45.0398 87.3434Z" fill="#62666B"/>
<path d="M52.1802 137.094L55.2353 137.55C54.9543 136.756 54.708 135.946 54.4603 135.147C50.8836 123.6 45.8482 112.561 40.8258 101.56C38.6413 96.7737 32.7947 88.0203 32.7498 88.0362C32.8512 88.7682 32.954 89.4989 33.0583 90.231C32.9772 89.3159 32.9178 88.823 32.9178 88.823C32.9178 88.823 35.4152 95.4824 40.003 105.869C44.0519 115.03 52.1802 137.094 52.1802 137.094Z" fill="#62666B"/>
<path d="M13.7307 36.0176C13.2019 37.7023 13.2932 39.5095 13.4018 41.272C13.7944 47.649 14.3362 54.0187 15.0286 60.3698C15.075 60.7935 15.1214 61.2258 15.0402 61.6437C14.9562 62.0804 14.7389 62.4796 14.5245 62.8701C11.6925 68.0265 8.86185 73.1828 6.02979 78.3377C7.46247 79.4863 8.73871 80.828 9.80925 82.3167C11.5157 81.3079 12.7992 79.7371 14.0407 78.1951C15.9282 75.8475 17.8013 73.4898 19.6613 71.1206C19.9902 70.7026 20.3219 70.2775 20.5291 69.7875C20.771 69.2183 20.8318 68.5928 20.8898 67.9789C21.6865 59.6002 22.4847 51.2028 22.379 42.788C22.3529 40.6984 22.2616 38.5641 21.4996 36.6171C20.8753 35.0218 19.4629 33.01 17.6608 32.5978C15.7761 32.1684 14.2247 34.4468 13.7307 36.0176Z" fill="#80868E"/>
<path d="M37.6489 31.3775C38.7817 31.7998 40.4549 32.4079 41.3704 33.238C43.1812 34.8838 42.7958 35.8047 42.8292 38.3944C42.8857 42.7624 41.8108 47.0728 40.7431 51.3155C39.8493 54.8679 38.9555 58.4203 38.0617 61.9726C37.83 62.8935 37.5909 63.8317 37.1056 64.633C36.2321 66.0741 34.6691 66.8725 33.1176 67.1996C30.991 67.6478 27.1579 72.4453 25.0372 72.072C23.858 71.8645 23.5596 69.1768 22.3876 68.9275C21.8473 68.8122 22.0298 66.015 21.7241 65.5236C21.5518 65.2454 21.4982 64.901 21.4504 64.5667C20.6015 58.7171 19.7511 52.8676 18.9022 47.0166C18.359 43.2712 18.1967 36.5959 18.2764 32.7898C18.2909 32.1183 24.5345 30.0704 26.9812 29.8557C30.6187 29.5343 34.4155 29.6424 37.6489 31.3775Z" fill="white"/>
<path d="M35.6874 30.3108C32.7887 30.7921 29.7263 30.8281 26.6958 30.4145C26.8276 27.0697 26.9594 23.7248 27.0927 20.38C27.1058 20.0471 27.1275 19.694 27.3593 19.4404C27.5476 19.2343 27.8504 19.1219 28.1531 19.0383C29.9682 18.5353 32.0673 18.7991 34.0056 19.3294C34.7255 19.5268 36.6594 18.7947 36.3697 19.413C35.7178 20.7965 34.9617 23.6369 34.9385 24.4367C34.8791 26.3837 35.2832 28.358 35.6874 30.3108Z" fill="#F2D6B1"/>
<path d="M39.1237 13.5427C39.0281 14.4664 38.6225 15.3282 38.1995 16.1569C37.1666 18.1773 35.9875 20.1229 34.675 21.9747C34.1984 22.6477 33.6957 23.315 33.0511 23.8323C31.9979 24.6768 30.6189 25.0573 29.2658 25.0688C27.9128 25.0803 26.5772 24.7474 25.3053 24.2892C23.8234 23.7545 22.2588 22.8841 21.817 21.3795C21.5954 20.6258 21.6939 19.8202 21.8185 19.0463C22.1299 17.1037 22.5949 15.1856 23.2091 13.315C23.9117 11.172 24.8475 9.03484 26.4628 7.45393C28.078 5.87446 30.5001 4.95214 32.6658 5.61649C34.5722 6.20159 35.7919 7.74215 36.9696 9.23228C38.0749 10.6287 39.3323 11.5438 39.1237 13.5427Z" fill="#F2D6B1"/>
<path d="M24.1029 70.0413C25.0996 55.8822 29.541 41.9754 36.9406 29.8397C40.1189 31.9019 44.1606 32.7464 46.8536 35.2107C43.4261 42.987 41.301 50.8729 41.0591 59.3611C40.8171 67.8479 42.8626 76.5364 47.7285 83.5115C48.0096 83.915 48.3152 84.3877 48.1805 84.8589C48.0733 85.2394 47.7111 85.4858 47.3664 85.6847C42.9466 88.2254 37.3781 88.0885 32.5267 86.509C30.7463 85.9297 28.9659 85.127 27.7332 83.7233C26.6641 82.5056 26.0977 80.942 25.5877 79.4072C24.9721 77.551 24.4042 75.679 23.8885 73.794C24.2985 76.4053 24.7084 79.0181 25.1169 81.6308C25.4197 83.5619 25.2241 84.2594 24.213 85.934C22.3877 88.9561 19.8526 87.587 17.5493 87.3391C16.4267 82.3182 15.9674 78.848 15.556 73.8372C14.4638 60.5385 14.4261 47.1087 16.3238 33.8993C16.3861 33.4626 16.46 33.0044 16.7367 32.6571C17.0119 32.3112 17.445 32.1339 17.8564 31.9711C19.9048 31.1626 22.0502 30.1005 24.1319 29.5312C21.3534 33.4122 21.2433 39.5442 21.1245 44.2264C20.9811 49.8425 21.5577 55.4542 22.437 60.9953C22.6818 62.5373 22.9513 64.0765 23.2366 65.6127C23.4815 66.9313 24.1971 68.7111 24.1029 70.0413Z" fill="#8D939E"/>
<path d="M25.0372 29.1221C25.0372 29.1221 22.4094 35.4328 22.0473 40.752C21.6851 46.0711 24.1029 70.0414 24.1029 70.0414L18.2577 48.1449L19.7367 44.6286L16.6091 40.8413L19.1471 30.6987C19.1471 30.6987 19.7396 29.9363 22.3891 29.5285C25.0372 29.1221 25.0372 29.1221 25.0372 29.1221Z" fill="#73787F"/>
<path d="M41.0589 59.7603C41.2212 54.0909 42.2236 48.691 43.8924 43.4122C43.7635 43.3905 43.6317 43.3776 43.4999 43.3747C42.1367 43.343 40.6678 44.4426 39.8102 45.4442C38.8483 46.5682 38.8802 48.472 38.6919 49.8641C38.1428 53.918 37.9067 58.0309 38.2442 62.1151C38.434 64.4122 38.8063 66.6964 39.4017 68.9259C40.6272 73.5173 42.9233 77.9286 46.1436 81.4031C42.4177 74.9108 40.8445 67.2585 41.0589 59.7603Z" fill="#80868E"/>
<path d="M36.6001 29.5303C36.6001 29.5303 31.188 38.4364 28.4689 45.4677C25.7499 52.5004 24.1115 70.6629 24.1028 70.0403C24.0941 69.4177 34.3721 49.2261 34.3721 49.2261L32.2875 45.1679L37.2722 43.6346C37.2722 43.6346 38.0878 38.4047 39.9 36.2416C41.7123 34.0785 44.2503 32.5437 44.2503 32.5437L36.6001 29.5303Z" fill="#73787F"/>
<path d="M46.5348 79.802C46.5928 79.4403 46.6609 79.0569 46.9071 78.7845C47.1128 78.5568 47.4142 78.4416 47.7082 78.3551C49.2727 77.8925 50.9445 78.015 52.5684 78.1764C52.8523 78.2038 53.1507 78.2384 53.3854 78.4012C53.7026 78.6217 53.8301 79.0267 53.891 79.4071C53.9967 80.0715 53.9634 80.7488 53.9315 81.4204C53.917 81.6999 53.9025 81.9853 53.7997 82.2447C53.6968 82.5055 53.4897 82.7404 53.2144 82.8024C52.9407 82.8629 52.6133 82.6958 52.5669 82.4191C52.5437 82.2764 52.593 82.1323 52.635 81.9939C52.8813 81.1912 52.9059 80.3222 52.7031 79.508C52.6669 79.361 52.6205 79.2111 52.5206 79.0958C52.3293 78.8739 52.0005 78.8451 51.7064 78.8379C50.6895 78.8148 49.6726 78.8725 48.6643 79.0094C48.4123 79.0439 48.1457 79.0901 47.9603 79.263C47.7242 79.4835 47.6908 79.8394 47.6735 80.1608C47.6416 80.7358 47.6097 81.3108 47.5779 81.8858C47.559 82.2144 47.5098 82.5978 47.2244 82.7649C46.8637 82.9768 46.3784 82.6453 46.2799 82.2404C46.1857 81.8556 46.3509 81.4766 46.3842 81.0961C46.4233 80.6609 46.4639 80.2372 46.5348 79.802Z" fill="#4B4E51"/>
<path d="M60.5589 100.899L40.3419 101.28C38.6268 101.311 37.21 99.9552 37.1781 98.2489L36.9261 84.9718C36.8942 83.2655 38.2574 81.8561 39.9725 81.8244L60.1895 81.4439C61.9047 81.4122 63.3215 82.7683 63.3533 84.4746L63.6054 97.7517C63.6373 99.4565 62.2727 100.866 60.5589 100.899Z" fill="#4B4E51"/>
<path d="M39.9681 81.818L41.198 81.7949C40.7634 82.3382 40.5099 83.0285 40.5244 83.7765L40.7765 97.0536C40.8083 98.7598 42.2251 100.116 43.9403 100.084L62.9274 99.7268C62.3711 100.423 61.5179 100.875 60.5545 100.893L40.3375 101.273C38.6224 101.305 37.2056 99.9488 37.1738 98.2425L36.9217 84.9654C36.8898 83.2591 38.2544 81.8497 39.9681 81.818Z" fill="#393B3D"/>
<path d="M48.5542 72.7017C48.2515 73.4713 47.349 78.4705 47.517 79.279C47.6851 80.0875 48.2008 80.8469 48.9584 81.187C49.4756 81.4191 50.0608 81.4436 50.6258 81.4075C51.0473 81.3802 51.4761 81.3182 51.8484 81.1208C52.2207 80.9248 52.5322 80.5717 52.5829 80.1552C52.6104 79.9304 52.5626 79.7027 52.5365 79.4779C52.4467 78.7112 52.6104 77.9402 52.6872 77.1721C52.7625 76.404 52.7379 75.5796 52.3192 74.9282C52.254 74.8274 52.1772 74.7294 52.0715 74.6717C51.847 74.5521 51.5732 74.6487 51.3385 74.7467C50.6562 75.032 49.69 71.8976 48.5542 72.7017Z" fill="#F2D6B1"/>
<path d="M50.9807 55.5165C49.3626 61.3488 48.279 67.328 47.7502 73.3562C47.7328 73.5464 47.7184 73.7468 47.798 73.9197C47.8792 74.0984 48.0458 74.2223 48.2066 74.3362C49.6653 75.368 51.2255 76.2558 52.8581 76.9835C55.6843 71.3012 56.9765 65.0006 58.0413 58.749C58.2803 57.341 58.5121 55.9128 58.3817 54.4919C58.273 53.3029 57.9152 52.1486 57.4922 51.0317C55.2324 45.0583 51.1197 39.9769 46.8535 35.2096C46.6 34.9257 46.3248 34.6303 45.9583 34.5265C45.5208 34.404 45.0601 34.5827 44.6502 34.7773C42.9017 35.6059 41.3227 36.7819 40.0305 38.2172C38.7789 39.6079 37.394 41.8229 38.0662 43.7886C38.5268 45.1375 40.1855 45.7803 41.1083 46.7977C42.6105 48.455 44.0258 50.1224 45.712 51.6082C46.1843 52.0261 51.0038 55.4315 50.9807 55.5165Z" fill="#8D939E"/>
<path d="M53.1304 76.6063C50.7358 70.2942 50.6982 63.0914 53.171 56.7995C53.6215 55.6523 54.1662 54.5124 55.0295 53.6319C54.1676 53.9489 53.2767 54.1896 52.3713 54.351C53.1912 54.031 53.8982 53.4315 54.3458 52.6778C51.4326 52.4112 48.4108 52.1014 45.8931 50.617C44.8066 49.9772 43.8534 49.1399 42.9075 48.3069C42.3396 47.8083 41.7732 47.3082 41.2053 46.8096C42.7032 48.4625 44.1171 50.127 45.7989 51.6085C46.2726 52.0264 51.0922 55.4318 51.069 55.5154C49.4509 61.3476 48.3673 67.3269 47.8386 73.3551C47.8212 73.5453 47.8067 73.7456 47.8864 73.9186C47.9675 74.0973 48.1341 74.2212 48.2949 74.3351C49.7537 75.3669 51.3138 76.2546 52.9464 76.9824C53.0073 76.8585 53.0681 76.7331 53.1304 76.6063Z" fill="#80868E"/>
<path d="M41.0997 46.697C41.0939 46.6336 41.0866 46.5701 41.0823 46.5053L39.0339 44.8984C39.4642 45.2775 39.8944 45.6565 40.3247 46.034C40.6028 46.2459 40.8708 46.4621 41.0997 46.697Z" fill="#80868E"/>
<path d="M34.6792 34.6593C29.8437 36.1379 25.4428 39.1786 22.6628 43.3824C22.7787 39.9482 21.4837 36.4881 19.1398 33.9661C18.6183 33.4055 18.0171 32.8723 17.2783 32.6648C16.5381 32.4572 15.3647 33.1374 14.9663 33.7917C15.5226 31.5695 18.3184 30.2696 20.3393 29.4986C22.3601 28.7276 24.5156 28.3861 26.6538 28.0488C27.0116 28.8804 27.4375 29.6831 27.9286 30.4454C31.7225 28.4927 36.2567 28.1771 40.407 29.183C44.4429 30.1601 48.4976 32.3679 51.4485 35.2919C50.391 34.9893 49.4523 34.3912 48.3919 34.116C46.9519 33.7427 45.3889 33.6289 43.9084 33.5582C40.7967 33.4113 37.6561 33.7485 34.6792 34.6593Z" fill="#F46A4A"/>
<path d="M21.6995 47.9793C22.0312 49.7144 22.4904 51.4466 23.3364 53.0016C24.181 54.5551 25.4456 55.9299 27.0637 56.6577C26.1482 55.2296 25.6759 53.5247 25.7281 51.8328C25.7817 50.0602 26.3901 48.3439 26.4901 46.5727C26.59 44.7987 25.7672 39.4305 23.0322 40.0069C20.2132 40.6007 21.3431 46.1202 21.6995 47.9793Z" fill="#F46A4A"/>
<path d="M21.811 39.2039C21.5648 39.5887 21.5068 40.0614 21.4851 40.5168C21.4793 40.6292 21.4764 40.7445 21.5083 40.8526C21.5648 41.0515 21.7314 41.2028 21.9168 41.2936C22.1037 41.3829 22.3108 41.4204 22.5136 41.455C23.1597 41.566 23.8145 41.6769 24.4693 41.638C24.7271 41.6222 24.9966 41.5789 25.1965 41.4161C25.3355 41.3022 25.4283 41.1423 25.5021 40.9794C25.7107 40.5226 25.8005 39.9793 25.5948 39.521C25.4123 39.1146 25.0212 38.8307 24.5996 38.6765C23.7276 38.358 22.3847 38.309 21.811 39.2039Z" fill="#F2CF3D"/>
<path d="M27.7346 30.1652C27.7897 30.2617 27.8447 30.3626 27.8563 30.4721C27.878 30.6811 27.739 30.8684 27.6115 31.0356C26.9379 31.9205 26.3773 32.8903 25.9456 33.9135C25.6008 32.0458 25.0822 30.2099 24.3984 28.4373C24.7751 28.3969 26.5265 27.7916 26.6815 27.9617C26.7293 28.015 26.6974 28.2759 26.722 28.358C26.78 28.5497 26.9306 28.7385 27.0291 28.9114C27.2653 29.3293 27.4999 29.7473 27.7346 30.1652Z" fill="#E06046"/>
<path d="M21.943 71.2215C21.8053 71.844 21.9024 72.5977 22.4341 72.9508C22.4862 72.9854 22.5441 73.0171 22.6079 73.02C22.7151 73.0258 22.8092 72.9479 22.8759 72.8643C23.183 72.4709 23.099 71.9175 23.1352 71.4203C23.1511 71.2027 23.1917 70.9779 23.1192 70.7718C22.8281 69.9403 22.0458 70.7617 21.943 71.2215Z" fill="#62666B"/>
<path d="M22.1196 75.8465C22.0819 76.4777 22.25 77.217 22.7193 77.5182C22.7657 77.5485 22.8164 77.573 22.8671 77.5701C22.954 77.5643 23.0206 77.4793 23.0641 77.3899C23.2655 76.9706 23.1322 76.4273 23.1018 75.9315C23.0887 75.7139 23.0945 75.4862 23.012 75.2888C22.6788 74.4904 22.1471 75.381 22.1196 75.8465Z" fill="#62666B"/>
<path d="M26.6958 24.7228C26.6958 24.7228 27.1 25.1551 29.1686 24.6479C31.3517 24.1132 32.4222 21.8535 32.4222 21.8535C32.4222 21.8535 32.089 24.9865 30.0812 26.5242C28.072 28.0619 26.7233 28.3588 26.7233 28.3588L26.6958 24.7228Z" fill="#CEB699"/>
<path d="M20.3842 14.6521C20.3219 14.7256 20.2553 14.8121 20.264 14.9086C20.2726 14.9965 20.3407 15.0643 20.4059 15.1248C21.22 15.8713 22.1674 16.4722 23.1902 16.8916C23.2525 16.9176 23.3263 16.9421 23.3872 16.9118C23.4393 16.8859 23.4654 16.8268 23.4871 16.772C24.1463 15.1176 24.7663 13.4473 25.3472 11.7641C25.6181 10.9772 25.8803 10.1846 26.0599 9.37182C26.1063 9.16142 26.1439 8.92508 26.0295 8.74061C25.5992 8.04599 23.6697 10.7755 23.3684 11.1314C22.3717 12.306 21.3779 13.479 20.3842 14.6521Z" fill="#F2D6B1"/>
<path d="M26.1483 2.54949C26.5713 1.67472 27.1536 0.833106 28.004 0.354652C28.8529 -0.123802 30.0118 -0.154065 30.7462 0.485794C31.0838 0.779784 31.3039 1.18186 31.5444 1.55799C31.9761 2.23244 32.4976 2.85068 33.0887 3.3911C33.8521 4.08861 34.727 4.65353 35.5368 5.29627C37.2013 6.61634 38.5934 8.27508 39.6031 10.1399C40.042 10.9498 40.4143 11.8202 40.4708 12.7382C40.5882 14.6564 39.3337 16.3656 38.0821 17.8297C36.8304 19.2939 35.4543 20.8417 35.2457 22.7526C34.5967 21.5046 33.7941 20.3359 32.8612 19.281C33.4957 19.0086 34.1389 18.7319 34.6691 18.2909C35.1978 17.8499 35.6064 17.2144 35.6078 16.527C35.6093 15.8395 35.1109 15.1377 34.4257 15.0556C33.9535 14.9979 33.4885 15.2256 33.0133 15.2256C32.3672 15.2256 31.7849 14.8034 31.4039 14.2846C31.0229 13.7643 30.8027 13.1504 30.5449 12.561C30.1653 11.6949 29.6916 10.8705 29.1368 10.1039C28.6674 9.45536 28.1155 8.82991 27.384 8.49989C27.1073 8.37451 26.8031 8.30102 26.4989 8.28949C26.2482 8.2794 25.7745 8.50133 25.5746 8.44945C25.0184 8.30678 25.1516 7.30088 25.1574 6.78495C25.1763 5.32077 25.5123 3.86523 26.1483 2.54949Z" fill="#72594C"/>
<path d="M30.0002 12.0539C30.1305 11.8867 30.09 11.6331 29.9625 11.4645C29.835 11.2944 29.6395 11.1906 29.4482 11.0984C28.5342 10.6531 27.5578 10.3317 26.5568 10.1473C26.0527 10.055 25.4703 10.0161 25.0879 10.3562C24.5084 10.8722 25.2154 10.8808 25.5746 10.8433C26.0845 10.79 26.6002 10.8203 27.1029 10.9096C28.1329 11.0941 29.1093 11.5207 30.0002 12.0539Z" fill="#72594C"/>
<path d="M27.5635 13.173C27.8866 13.4122 28.2038 13.6601 28.5138 13.9166C27.7504 13.9988 26.9855 14.0651 26.2206 14.1155C26.0671 14.1256 25.8672 12.6974 26.0468 12.5418C26.3713 12.2593 27.3129 12.9885 27.5635 13.173Z" fill="white"/>
<path d="M26.0165 13.9485C26.0556 14.0292 26.1121 14.1228 26.2019 14.1243C26.3076 14.1257 26.3656 14.0032 26.3902 13.9009C26.4612 13.6127 26.4887 13.3129 26.4728 13.0161C26.4554 12.6745 26.1164 12.1514 25.7905 12.5636C25.5022 12.9296 25.8528 13.6069 26.0165 13.9485Z" fill="#72594C"/>
<path d="M32.6367 17.8472C32.8917 17.9379 33.1756 17.876 33.4291 17.7837C33.7406 17.6699 34.0404 17.5099 34.278 17.2794C34.5156 17.0488 34.6894 16.7447 34.7242 16.4161C34.7343 16.3253 34.7329 16.2317 34.7068 16.1437C34.63 15.8786 34.336 15.7186 34.0578 15.7258C33.8463 15.7316 33.6276 15.8166 33.4566 15.9391C33.2669 16.076 33.2321 16.2547 33.151 16.4709C33.1104 16.5862 32.6396 17.8472 32.6367 17.8472Z" fill="#CEB699"/>
<path d="M24.7749 19.8587C24.1288 19.6367 23.5103 19.3399 22.9352 18.9724C22.6063 18.7634 22.1949 18.5242 21.856 18.7159C22.0906 18.5833 21.8589 18.1654 22.1761 18.1048C22.3717 18.0674 22.9236 18.4997 23.0945 18.6049C23.6928 18.9695 24.2563 19.3889 24.7749 19.8587Z" fill="#CEB699"/>
<path d="M36.2887 10.5832C36.8348 11.8196 37.0115 13.2521 36.5886 14.5347C36.845 14.2479 37.0999 13.9612 37.3563 13.6744C37.0695 15.176 36.4886 16.6215 35.6556 17.9055C37.6881 16.2843 38.9976 13.7983 39.183 11.2144C39.0671 11.5242 38.9513 11.8326 38.8354 12.1425C38.5963 10.7719 37.8952 9.48502 36.871 8.53964C37.1434 9.05701 37.3187 9.62337 37.3867 10.2041C37.2042 8.77022 36.1583 7.60579 35.0834 6.63448C34.0086 5.66316 32.8207 4.7394 32.1775 3.44238C32.486 4.06495 32.5715 4.8273 32.8844 5.47005C33.1857 6.08829 33.5769 6.65465 33.9318 7.24119C34.6445 8.42147 35.7136 9.28471 36.2887 10.5832Z" fill="#9B776A"/>
</svg>
